STARTFONT 2.3
FONT -FontForge-Syncopate-Book-R-Normal--24-240-72-72-P-180-ISO10646-1
SIZE 24 72 72  4
FONTBOUNDINGBOX 45 27 -5 -6
COMMENT "Generated by fontforge, http://fontforge.sourceforge.net"
COMMENT "Copyright (c) 2010 by Brian J. Bonislawsky DBA Astigmatic (AOETI). All rights reserved. Available under the Apache 2.0 licence.http://www.apache.org/licenses/LICENSE-2.0.html"
STARTPROPERTIES 40
FOUNDRY "FontForge"
FAMILY_NAME "Syncopate"
WEIGHT_NAME "Book"
SLANT "R"
SETWIDTH_NAME "Normal"
ADD_STYLE_NAME ""
PIXEL_SIZE 24
POINT_SIZE 240
RESOLUTION_X 72
RESOLUTION_Y 72
SPACING "P"
AVERAGE_WIDTH 180
CHARSET_REGISTRY "ISO10646"
CHARSET_ENCODING "1"
FONTNAME_REGISTRY ""
CHARSET_COLLECTIONS "ISO8859-2 ISO8859-9 ISO8859-4 ISO10646-1"
BITS_PER_PIXEL 4
FONT_NAME "Syncopate-Regular"
FACE_NAME "Syncopate Regular"
COPYRIGHT "Copyright (c) 2010 by Brian J. Bonislawsky DBA Astigmatic (AOETI). All rights reserved. Available under the Apache 2.0 licence.http://www.apache.org/licenses/LICENSE-2.0.html"
FONT_VERSION "001.001"
FONT_ASCENT 19
FONT_DESCENT 5
UNDERLINE_POSITION -2
UNDERLINE_THICKNESS 2
X_HEIGHT 15
CAP_HEIGHT 15
RAW_ASCENT 799
RAW_DESCENT 200
NORM_SPACE 9
RELATIVE_WEIGHT 40
RELATIVE_SETWIDTH 70
SUPERSCRIPT_X 0
SUPERSCRIPT_Y 6
SUPERSCRIPT_SIZE 4
SUBSCRIPT_X 0
SUBSCRIPT_Y 6
SUBSCRIPT_SIZE 4
AVG_LOWERCASE_WIDTH 206
AVG_UPPERCASE_WIDTH 197
ENDPROPERTIES
CHARS 370
STARTCHAR space
ENCODING 32
SWIDTH 375 0
DWIDTH 9 0
BBX 1 1 0 0
BITMAP
00
ENDCHAR
STARTCHAR exclam
ENCODING 33
SWIDTH 274 0
DWIDTH 7 0
BBX 3 16 2 0
BITMAP
9F30
9F30
9F30
8F20
8F20
7F10
6F00
6F00
5E00
4E00
4D00
3C00
0000
0000
9F30
9F30
ENDCHAR
STARTCHAR quotedbl
ENCODING 34
SWIDTH 290 0
DWIDTH 7 0
BBX 7 5 0 11
BITMAP
2F708F20
1F707F10
1F607F00
0F506E00
0E505E00
ENDCHAR
STARTCHAR numbersign
ENCODING 35
SWIDTH 701 0
DWIDTH 17 0
BBX 15 16 1 0
BITMAP
000008A00008A000
00000B70000B7000
00000E40000E4000
00002F10002F1000
00005D00005D0000
07FFFFFFFFFFFF90
0000C60000C60000
0001F20001F20000
0005D00004D00000
0009900008900000
CFFFFFFFFFFFF400
001F20001F200000
004E00003E000000
007B00007B000000
00A80000A8000000
00D50000D5000000
ENDCHAR
STARTCHAR dollar
ENCODING 36
SWIDTH 767 0
DWIDTH 18 0
BBX 15 18 2 -1
BITMAP
0000007B00000000
0059DEFFDA500000
2CD7317B248C6000
CC10007B00018300
F700007B00000000
E900007B00000000
6F81007B00000000
04BE958B00000000
00027BEE84000000
0000007C7CE92000
0000007B003AE500
0000007B00007F20
0000007B00000F60
0000007B00001F60
A200007B00009E10
4CA6317B136CD300
0038CEFFECA50000
0000007B00000000
ENDCHAR
STARTCHAR percent
ENCODING 37
SWIDTH 992 0
DWIDTH 24 0
BBX 21 16 1 0
BITMAP
006DFEA300000005F40000
0BC4127F5000003E600000
7E100007E10001D9000000
BA000002F4000BC0000000
BA000002F4008E20000000
7E100007E105F400000000
0BC4127F503E6000000000
006DFEA301D90000000000
000000000BC004BEEC5000
000000009E207E6115DA00
00000006F303F500003F50
0000003F6007F000000C90
000001D90007F000000C90
00000BC00003F500003F50
00009E1000007E6115DA00
0006F300000004BEEC5000
ENDCHAR
STARTCHAR ampersand
ENCODING 38
SWIDTH 926 0
DWIDTH 22 0
BBX 20 16 1 0
BITMAP
000005BDEEC710000000
0001CD62103AE2000000
0007E1000000F7000000
000AC0000004F4000000
0007F200006E90000000
0001DB005CD500000000
00003EBDE71000000000
00006EFD100000000000
002CD63DC20000000BA0
02EA1002CE4000000E70
0CC0000009F800004F20
1F600000004EC200CA00
1F6000000001AE68E200
09E30000000006FF6000
009F95210125AEAAE600
00038BDEFEDA62005DC3
ENDCHAR
STARTCHAR quotesingle
ENCODING 39
SWIDTH 140 0
DWIDTH 3 0
BBX 3 5 0 11
BITMAP
2F70
1F70
1F60
0F50
0E50
ENDCHAR
STARTCHAR parenleft
ENCODING 40
SWIDTH 420 0
DWIDTH 10 0
BBX 7 20 1 -2
BITMAP
00001A30
0001BE40
0009F400
004F7000
00DC0000
04F60000
09F10000
0CB00000
0F800000
1F700000
1F700000
0F800000
0DB00000
09F10000
04F60000
00DC0000
004F7000
0009F400
0001BE40
00001B40
ENDCHAR
STARTCHAR parenright
ENCODING 41
SWIDTH 420 0
DWIDTH 10 0
BBX 7 20 2 -2
BITMAP
2B100000
3EC10000
03EB0000
006F6000
000BE000
0004F500
0000DA00
00009E00
00007F10
00005F20
00005F20
00007F10
00009E00
0000DA00
0004F500
000BE000
006F6000
03EB0000
3EC10000
3B100000
ENDCHAR
STARTCHAR asterisk
ENCODING 42
SWIDTH 503 0
DWIDTH 12 0
BBX 10 9 1 7
BITMAP
00009A0000
0300890021
5F918918F6
03BEBCDB40
0007FF8000
04BEBBDC40
5F918908F6
0300890021
00009A0000
ENDCHAR
STARTCHAR plus
ENCODING 43
SWIDTH 634 0
DWIDTH 15 0
BBX 12 11 2 2
BITMAP
00000F400000
00000F400000
00000F400000
00000F400000
00000F400000
FFFFFFFFFFF3
00000F400000
00000F400000
00000F400000
00000F400000
00000F400000
ENDCHAR
STARTCHAR comma
ENCODING 44
SWIDTH 185 0
DWIDTH 4 0
BBX 4 5 0 -2
BITMAP
08F5
0BF1
0EB0
2F70
5F20
ENDCHAR
STARTCHAR hyphen
ENCODING 45
SWIDTH 540 0
DWIDTH 13 0
BBX 11 1 1 7
BITMAP
1FFFFFFFFF10
ENDCHAR
STARTCHAR period
ENCODING 46
SWIDTH 185 0
DWIDTH 4 0
BBX 3 3 1 0
BITMAP
CF40
CF40
CF40
ENDCHAR
STARTCHAR slash
ENCODING 47
SWIDTH 500 0
DWIDTH 12 0
BBX 10 17 1 0
BITMAP
00000001E7
00000007E1
0000000D80
0000006E10
000000C900
000005F200
00000CA000
00004F3000
0000BB0000
0003F40000
000AC00000
002F500000
009C000000
01E6000000
08D0000000
1E70000000
7E10000000
ENDCHAR
STARTCHAR zero
ENCODING 48
SWIDTH 833 0
DWIDTH 20 0
BBX 18 16 1 0
BITMAP
0000049DEEDA400000
0003CD631137DC3000
004F7000000008F400
02E700000000008E30
0AC000000000000CB0
2F50000000000006F2
6F10000000000001F6
8F00000000000000F7
8F00000000000000F7
6F10000000000001F6
2F50000000000006F2
0AC000000000000CB0
03E700000000008E30
004F7000000008F400
0003CD621137DC3000
0000049DEEDA400000
ENDCHAR
STARTCHAR one
ENCODING 49
SWIDTH 339 0
DWIDTH 8 0
BBX 6 16 0 0
BITMAP
004CF4
4CB5F4
B302F4
0002F4
0002F4
0002F4
0002F4
0002F4
0002F4
0002F4
0002F4
0002F4
0002F4
0002F4
0002F4
0002F4
ENDCHAR
STARTCHAR two
ENCODING 50
SWIDTH 728 0
DWIDTH 17 0
BBX 15 16 1 0
BITMAP
0028BEFEDB720000
3BC73101249E9100
A30000000002DB00
0000000000003F60
0000000000000D90
0000000000000E90
0000000000004F40
000000000002DA00
00000000002DA000
0000000005E90000
000000019E500000
0000005EB1000000
00003CE500000000
002AF91000000000
19FC400000000000
EFFFFFFFFFFFFFF0
ENDCHAR
STARTCHAR three
ENCODING 51
SWIDTH 726 0
DWIDTH 17 0
BBX 15 16 1 0
BITMAP
0028CEFEDB830000
2AC63101249EA100
840000000002DA00
0000000000006F10
0000000000006F10
000000000002D900
0000001236AE7000
00005FFFFE810000
0000001246AEA200
000000000001AE20
0000000000000E90
0000000000000CA0
0000000000001E80
A20000000001BD10
5DA52101248EB200
0059DEFFDB830000
ENDCHAR
STARTCHAR four
ENCODING 52
SWIDTH 769 0
DWIDTH 18 0
BBX 18 16 0 0
BITMAP
00000000005FF90000
0000000004F9C90000
000000004F90C90000
00000003EA00C90000
0000003EB000C90000
000002EC1000C90000
00002DC10000C90000
0001DD100000C90000
001CD2000000C90000
01CE20000000C90000
0BE300000000C90000
4FFFFFFFFFFFFFFFFB
000000000000C90000
000000000000C90000
000000000000C90000
000000000000C90000
ENDCHAR
STARTCHAR five
ENCODING 53
SWIDTH 738 0
DWIDTH 18 0
BBX 16 16 1 0
BITMAP
0EFFFFFFFFFFFE00
0E80000000000000
0E80000000000000
0E80000000000000
0E80000000000000
0E80000000000000
0ECCDEFFECA61000
0DA53100137CE700
0000000000006F70
00000000000008E1
00000000000003F4
00000000000003F3
00000000000008E1
7500000000006F60
19D84200137CE600
0017BDFFEC951000
ENDCHAR
STARTCHAR six
ENCODING 54
SWIDTH 772 0
DWIDTH 19 0
BBX 17 16 1 0
BITMAP
0000048CEFEDA72000
0003CC73101248C000
004E50000000000000
02E600000000000000
09C000000000000000
0F60039CEFEC820000
4F32BC6201259F8000
6F8D5000000003E900
6FB100000000005F20
5F4000000000000F70
3F7000000000000E80
0DC000000000001F60
06F500000000006F20
00AE5000000004E700
0007FB520025AE6000
000017BDFFEB710000
ENDCHAR
STARTCHAR seven
ENCODING 55
SWIDTH 669 0
DWIDTH 16 0
BBX 16 16 0 0
BITMAP
FFFFFFFFFFFFFFF3
0000000000001EA0
0000000000009E10
000000000003F600
00000000000CC000
00000000007F3000
0000000002E90000
000000000BD10000
000000005F500000
00000001EB000000
00000009E2000000
0000003F70000000
000000CD00000000
000007F400000000
00002E9000000000
0000BE1000000000
ENDCHAR
STARTCHAR eight
ENCODING 56
SWIDTH 793 0
DWIDTH 19 0
BBX 17 16 1 0
BITMAP
00016ADEFEDA610000
004EB6210125AE5000
02E70000000006F200
06F00000000000E700
05F30000000002F600
00CD400000004DB000
0018EC73137CE70000
00002BFFFFFC300000
003AEB73137BFC5000
07F92000000018FA00
5F6000000000005F70
AD0000000000000CB0
9E0000000000000D90
3FA100000000009E30
04DE842101248DC300
00049CDEFEDB840000
ENDCHAR
STARTCHAR nine
ENCODING 57
SWIDTH 776 0
DWIDTH 19 0
BBX 17 16 1 0
BITMAP
00038CEFEDA5000000
01AE8410137DD40000
0CC100000001AF5000
7E20000000000BE100
CA000000000003F800
D9000000000000CD00
CA000000000000AF00
8E100000000005FF10
1DB1000000008C8F00
02CD7310137D808D00
0005ADEFEC7200CA00
00000000000002F400
0000000000000BB000
000000000001AD1000
07A63100148E910000
0159CEFEDB72000000
ENDCHAR
STARTCHAR colon
ENCODING 58
SWIDTH 245 0
DWIDTH 6 0
BBX 3 11 1 0
BITMAP
1FF0
1FF0
1FF0
0000
0000
0000
0000
0000
1FF0
1FF0
1FF0
ENDCHAR
STARTCHAR semicolon
ENCODING 59
SWIDTH 234 0
DWIDTH 6 0
BBX 3 13 1 -2
BITMAP
1FF0
1FF0
1FF0
0000
0000
0000
0000
0000
1FC0
4F80
7F30
AE00
D900
ENDCHAR
STARTCHAR less
ENCODING 60
SWIDTH 634 0
DWIDTH 15 0
BBX 13 11 1 2
BITMAP
00000000003A40
000000005CC500
0000017DB40000
00039EA3000000
04BE9200000000
3FD30000000000
04BE9200000000
00039EA3000000
0000017DB40000
000000005CC500
00000000004A40
ENDCHAR
STARTCHAR equal
ENCODING 61
SWIDTH 634 0
DWIDTH 15 0
BBX 12 5 2 5
BITMAP
FFFFFFFFFFF3
000000000000
000000000000
000000000000
FFFFFFFFFFF3
ENDCHAR
STARTCHAR greater
ENCODING 62
SWIDTH 634 0
DWIDTH 15 0
BBX 12 11 2 2
BITMAP
C50000000000
3AD710000000
0029E9200000
000028EB4000
00000017ED61
000000001CF6
00000017ED61
000028EB4000
0029E9200000
3AD710000000
C50000000000
ENDCHAR
STARTCHAR question
ENCODING 63
SWIDTH 568 0
DWIDTH 14 0
BBX 11 16 1 0
BITMAP
006CEECA4000
2C931138EA00
630000003F70
000000000AD0
0000000008E0
000000000CD0
000000008F50
0000003BF800
00026BFC4000
004FE9400000
004F30000000
004F30000000
000000000000
000000000000
004F80000000
004F80000000
ENDCHAR
STARTCHAR at
ENCODING 64
SWIDTH 1016 0
DWIDTH 24 0
BBX 22 17 1 0
BITMAP
000000048CEFEDB8300000
000004DD84101248DC3000
0001AE600000000007F600
001CD20000000000005F40
00AD200029DFDAAD000AD0
04F40004EA3028FB0003F4
0BC0001E900000D90000F7
0F80007F100000F70000E8
2F6000BC000002F40001F7
2F6000CC000004F20006F3
0F80009E100009F0001DA0
0BC0002EA2029DF624DC10
05F50002AEFD716DFD8100
00AE200000000000000000
000BE50000000002B30000
00006ED74110259FB20000
00000059CEFFEB83000000
ENDCHAR
STARTCHAR A
ENCODING 65
SWIDTH 812 0
DWIDTH 20 0
BBX 19 16 0 0
BITMAP
000000005FD000000000
00000000D9E600000000
00000006E17E10000000
0000001E700D70000000
0000007E1006E1000000
000001E60000D8000000
000008D000005E100000
00001E5000000C900000
00009C00000004F20000
0002F400000000BA0000
0009FFFFFFFFFFFF3000
002E100000000008A000
00AA000000000002F300
03F3000000000000AB00
0BB00000000000003F40
4F500000000000000CC0
ENDCHAR
STARTCHAR B
ENCODING 66
SWIDTH 836 0
DWIDTH 20 0
BBX 17 16 2 0
BITMAP
4FFFFFFFFFFDA50000
4F30000000137E9000
4F300000000003F300
4F300000000000E600
4F300000000000E600
4F300000000003F300
4F30000000137E7000
4FFFFFFFFFFFD71000
4F30000000025AE600
4F3000000000008F30
4F3000000000001F80
4F3000000000000D90
4F3000000000000E80
4F3000000000005F40
4F300000000138F800
4FFFFFFFFFFEC93000
ENDCHAR
STARTCHAR C
ENCODING 67
SWIDTH 869 0
DWIDTH 21 0
BBX 19 16 1 0
BITMAP
00000159CDFEDB830000
00017EB63110237BC500
002DB200000000002930
01DA0000000000000000
09E10000000000000000
1F800000000000000000
4F400000000000000000
6F200000000000000000
6F200000000000000000
4F400000000000000000
1F800000000000000000
09E10000000000000000
01DA0000000000000000
002DB200000000002930
00018EB63100137BC500
00000159CEFEDB830000
ENDCHAR
STARTCHAR D
ENCODING 68
SWIDTH 910 0
DWIDTH 22 0
BBX 19 16 2 0
BITMAP
4FFFFFFFFFEC95100000
4F30000000137CD50000
4F3000000000006F6000
4F30000000000006F300
4F30000000000000DA00
4F300000000000008E00
4F300000000000005F20
4F300000000000004F40
4F300000000000004F40
4F300000000000005F30
4F300000000000008F00
4F30000000000000DA00
4F30000000000007F300
4F3000000000006F7000
4F30000000136CD50000
4FFFFFFFFFEC95000000
ENDCHAR
STARTCHAR E
ENCODING 69
SWIDTH 754 0
DWIDTH 18 0
BBX 15 16 2 0
BITMAP
4FFFFFFFFFFFFF20
4F40000000000000
4F40000000000000
4F40000000000000
4F40000000000000
4F40000000000000
4F40000000000000
4FFFFFFFFFFFF800
4F40000000000000
4F40000000000000
4F40000000000000
4F40000000000000
4F40000000000000
4F40000000000000
4F40000000000000
4FFFFFFFFFFFFF40
ENDCHAR
STARTCHAR F
ENCODING 70
SWIDTH 687 0
DWIDTH 17 0
BBX 14 16 2 0
BITMAP
4FFFFFFFFFFFF7
4F300000000000
4F300000000000
4F300000000000
4F300000000000
4F300000000000
4F300000000000
4FFFFFFFFFFFD0
4F300000000000
4F300000000000
4F300000000000
4F300000000000
4F300000000000
4F300000000000
4F300000000000
4F300000000000
ENDCHAR
STARTCHAR G
ENCODING 71
SWIDTH 910 0
DWIDTH 22 0
BBX 19 16 1 0
BITMAP
00000158CDEFEC940000
00017EC74210136AD710
002DC300000000001760
01DB1000000000000000
09E10000000000000000
1E800000000000000000
4F400000000000000000
6F200000000000000000
6F200000002FFFFFFFD0
4F4000000000000009D0
1E8000000000000009D0
09E200000000000009D0
01DC10000000000009D0
002DD4000000000009D0
00018EC7421012369EC0
00000159CEEFEDCA7300
ENDCHAR
STARTCHAR H
ENCODING 72
SWIDTH 949 0
DWIDTH 23 0
BBX 19 16 2 0
BITMAP
4F300000000000006F10
4F300000000000006F10
4F300000000000006F10
4F300000000000006F10
4F300000000000006F10
4F300000000000006F10
4F300000000000006F10
4FFFFFFFFFFFFFFFFF10
4F300000000000006F10
4F300000000000006F10
4F300000000000006F10
4F300000000000006F10
4F300000000000006F10
4F300000000000006F10
4F300000000000006F10
4F300000000000006F10
ENDCHAR
STARTCHAR I
ENCODING 73
SWIDTH 287 0
DWIDTH 7 0
BBX 3 16 2 0
BITMAP
4F30
4F30
4F30
4F30
4F30
4F30
4F30
4F30
4F30
4F30
4F30
4F30
4F30
4F30
4F30
4F30
ENDCHAR
STARTCHAR J
ENCODING 74
SWIDTH 590 0
DWIDTH 14 0
BBX 12 16 0 0
BITMAP
0000000000E8
0000000000E8
0000000000E8
0000000000E8
0000000000E8
0000000000E8
0000000000E8
0000000000E8
0000000000E8
0000000000E8
0000000000E8
0000000000F7
0000000003F4
000000001CC0
C7421016DC20
37BDEFEB6000
ENDCHAR
STARTCHAR K
ENCODING 75
SWIDTH 806 0
DWIDTH 19 0
BBX 17 16 2 0
BITMAP
4F300000000019E700
4F3000000005DB2000
4F30000002AE600000
4F3000006EB2000000
4F30003CE500000000
4F3018FA1000000000
4F34DD500000000000
4FBFC1000000000000
4F5BF9100000000000
4F306ED40000000000
4F3002BF9100000000
4F300006ED40000000
4F3000002BF9100000
4F300000006ED40000
4F3000000002BF9100
4F300000000006ED40
ENDCHAR
STARTCHAR L
ENCODING 76
SWIDTH 701 0
DWIDTH 17 0
BBX 14 16 2 0
BITMAP
4F300000000000
4F300000000000
4F300000000000
4F300000000000
4F300000000000
4F300000000000
4F300000000000
4F300000000000
4F300000000000
4F300000000000
4F300000000000
4F300000000000
4F300000000000
4F300000000000
4F300000000000
4FFFFFFFFFFFFE
ENDCHAR
STARTCHAR M
ENCODING 77
SWIDTH 1139 0
DWIDTH 27 0
BBX 23 16 2 0
BITMAP
4F9000000000000000004F90
4FF40000000000000000DF90
4F9D0000000000000008CC90
4F3C800000000000002E3C90
4F33E2000000000000B80C90
4F308B000000000006D10C90
4F301D60000000001E400C90
4F3004E200000000AA000C90
4F3000AA00000004E1000C90
4F30001E5000001D60000C90
4F300006D100008C00000C90
4F300000C90003E300000C90
4F3000003F300C8000000C90
4F30000008C06D1000000C90
4F30000001D9E40000000C90
4F300000004FA00000000C90
ENDCHAR
STARTCHAR N
ENCODING 78
SWIDTH 936 0
DWIDTH 22 0
BBX 18 16 2 0
BITMAP
4FC1000000000000AC
4FEB100000000000AC
4F5DB00000000000AC
4F32EB0000000000AC
4F302EA000000000AC
4F3003EA00000000AC
4F30003EA0000000AC
4F300003E9000000AC
4F3000003E900000AC
4F30000003E80000AC
4F300000004E8000AC
4F3000000004F800AC
4F30000000004F70AC
4F300000000004F7AC
4F3000000000005FEC
4F30000000000005FC
ENDCHAR
STARTCHAR O
ENCODING 79
SWIDTH 983 0
DWIDTH 24 0
BBX 21 16 1 0
BITMAP
00000169CDFEEC95000000
00018EA63101147CE60000
003EB200000000004DA000
02EA00000000000002E900
0AE1000000000000005F40
1F80000000000000000D90
4F40000000000000000AD0
6F200000000000000008F0
6F200000000000000008F0
4F40000000000000000AD0
1F80000000000000000D90
0AD1000000000000005F40
01EA00000000000002E900
003EB200000000004DA000
00029EA53101147CE60000
0000016ADEFFEC95000000
ENDCHAR
STARTCHAR P
ENCODING 80
SWIDTH 818 0
DWIDTH 20 0
BBX 17 16 2 0
BITMAP
4FFFFFFFFFEDA60000
4F30000000136CD200
4F300000000000CC00
4F3000000000005F30
4F3000000000002F50
4F3000000000002F50
4F3000000000005F30
4F300000000000CC00
4F30000000025DD200
4FFFFFFFFFEDA60000
4F3000000000000000
4F3000000000000000
4F3000000000000000
4F3000000000000000
4F3000000000000000
4F3000000000000000
ENDCHAR
STARTCHAR Q
ENCODING 81
SWIDTH 983 0
DWIDTH 24 0
BBX 23 16 1 0
BITMAP
00000169CDFEEC9500000000
00018EA63101147CE6000000
003EB200000000004DA00000
02EA00000000000002E90000
0AE1000000000000005F4000
1F80000000000000000D9000
4F40000000000000000AD000
6F200000000000000008F000
6F200000000000000008F000
4F40000000000000000AD000
1F80000000000000000D9000
0AD1000000000000005F4000
01EA000000009A4002D90000
003EB200000028DEADC00000
00029EA53101248EB9ED8400
0000016ADEFFEB8300049D30
ENDCHAR
STARTCHAR R
ENCODING 82
SWIDTH 833 0
DWIDTH 20 0
BBX 17 16 2 0
BITMAP
4FFFFFFFFFEC820000
4F3000000125AF7000
4F300000000006F300
4F300000000000F800
4F300000000000E900
4F300000000000F700
4F300000000006F300
4F30000001249F7000
4FFFFFFFFFFE930000
4F300000008F300000
4F300000000BD10000
4F3000000002EA0000
4F30000000005F7000
4F300000000008F300
4F300000000000CD10
4F3000000000002EB0
ENDCHAR
STARTCHAR S
ENCODING 83
SWIDTH 787 0
DWIDTH 19 0
BBX 15 16 2 0
BITMAP
0048BEEFDB610000
1BE84200237B9200
AD10000000004800
F800000000000000
EA00000000000000
5FA2000000000000
04BFA62000000000
00027BED95100000
000000037BFB5000
000000000017EB10
0000000000002EA0
00000000000008F0
00000000000009E0
A200000000003E90
4BB63100125AF900
0028BDEFEDB72000
ENDCHAR
STARTCHAR T
ENCODING 84
SWIDTH 708 0
DWIDTH 17 0
BBX 17 16 0 0
BITMAP
8FFFFFFFFFFFFFFF80
00000003F400000000
00000003F400000000
00000003F400000000
00000003F400000000
00000003F400000000
00000003F400000000
00000003F400000000
00000003F400000000
00000003F400000000
00000003F400000000
00000003F400000000
00000003F400000000
00000003F400000000
00000003F400000000
00000003F400000000
ENDCHAR
STARTCHAR U
ENCODING 85
SWIDTH 891 0
DWIDTH 21 0
BBX 17 16 2 0
BITMAP
7F0000000000000AC0
7F0000000000000AC0
7F0000000000000AC0
7F0000000000000AC0
7F0000000000000AC0
7F0000000000000AC0
7F0000000000000AC0
7F0000000000000AC0
7F0000000000000AC0
7F0000000000000AC0
7F0000000000000AC0
5F1000000000000BB0
1F7000000000002E70
08F50000000002CD10
007EC63101259FB100
00016ADEFEEB830000
ENDCHAR
STARTCHAR V
ENCODING 86
SWIDTH 817 0
DWIDTH 20 0
BBX 19 16 0 0
BITMAP
2F800000000000000DB0
09E10000000000006F30
02F8000000000000DB00
009E100000000006F300
002F80000000000DB000
0009E1000000006F3000
0002F800000000DA0000
00009E10000006F30000
00002F8000000DA00000
000009F100006F300000
000002F90000DA000000
0000009F2006F2000000
0000002F900DA0000000
00000009F26F20000000
00000002F9DA00000000
000000008FF200000000
ENDCHAR
STARTCHAR W
ENCODING 87
SWIDTH 1266 0
DWIDTH 30 0
BBX 29 16 1 0
BITMAP
DB00000000001EF500000000005F40
8F20000000006FEB0000000000BD00
2F8000000000BC7F2000000002F700
0AD000000002F61F8000000008F100
04F400000008F10AD00000000DA000
00DA0000000DA004F40000004F4000
007F1000004F4000DA000000AD0000
001F700000AD00007F100002F70000
000AD00001F700002F600007F10000
0004F40006F200000BC0000DA00000
0000DA000CA0000005F3004F400000
00007F103F50000000E800AD000000
00001F708E000000008E01F7000000
00000AD0E8000000002F57E1000000
000004F8F2000000000BBD90000000
000000CFB00000000005FF30000000
ENDCHAR
STARTCHAR X
ENCODING 88
SWIDTH 821 0
DWIDTH 20 0
BBX 18 16 1 0
BITMAP
2EB100000000002EC1
03EB0000000002DC10
003EA00000001DC100
0003EA000001DD1000
00004E90001CD20000
000004F901CD200000
0000005F8BE2000000
00000006FE30000000
0000000BCE70000000
000000AC13E7000000
00000AD1004E600000
00009E200005F50000
0008E30000006F5000
008F4000000007F400
07F500000000008F40
7F60000000000009E3
ENDCHAR
STARTCHAR Y
ENCODING 89
SWIDTH 763 0
DWIDTH 18 0
BBX 17 16 1 0
BITMAP
BE200000000000BE20
1DC10000000008F400
02EA000000005F6000
004F70000003E90000
0007F500001DB00000
00009E3000CD100000
00000CD109E3000000
000001DB7F50000000
0000003EF700000000
00000009E000000000
00000009D000000000
00000009D000000000
00000009D000000000
00000009D000000000
00000009D000000000
00000009D000000000
ENDCHAR
STARTCHAR Z
ENCODING 90
SWIDTH 728 0
DWIDTH 17 0
BBX 15 16 1 0
BITMAP
0EFFFFFFFFFFFF90
000000000002ED10
00000000001CE200
0000000000AF4000
0000000008F60000
000000005F800000
00000003EB000000
0000001DD1000000
000000CE20000000
000009F400000000
00007F6000000000
0004F80000000000
002EB00000000000
01DD100000000000
0BE2000000000000
4FFFFFFFFFFFFFE0
ENDCHAR
STARTCHAR bracketleft
ENCODING 91
SWIDTH 409 0
DWIDTH 10 0
BBX 6 18 3 -1
BITMAP
FFFFF9
F70000
F70000
F70000
F70000
F70000
F70000
F70000
F70000
F70000
F70000
F70000
F70000
F70000
F70000
F70000
F70000
FFFFF9
ENDCHAR
STARTCHAR backslash
ENCODING 92
SWIDTH 500 0
DWIDTH 12 0
BBX 10 17 1 0
BITMAP
7E10000000
1E70000000
08D0000000
01E6000000
009C000000
002F500000
000AC00000
0003F40000
0000BB0000
00004F3000
00000CA000
000005F200
000000D900
0000006E10
0000000D80
00000007E1
00000001E7
ENDCHAR
STARTCHAR bracketright
ENCODING 93
SWIDTH 409 0
DWIDTH 10 0
BBX 6 18 1 -1
BITMAP
CFFFFC
0000AC
0000AC
0000AC
0000AC
0000AC
0000AC
0000AC
0000AC
0000AC
0000AC
0000AC
0000AC
0000AC
0000AC
0000AC
0000AC
CFFFFC
ENDCHAR
STARTCHAR asciicircum
ENCODING 94
SWIDTH 459 0
DWIDTH 11 0
BBX 11 7 0 9
BITMAP
00009F900000
0002F9F30000
000BB0BB0000
004F303F5000
00DA0009D000
06F20002E700
1E8000008E10
ENDCHAR
STARTCHAR underscore
ENCODING 95
SWIDTH 500 0
DWIDTH 12 0
BBX 12 1 0 -3
BITMAP
FFFFFFFFFFFF
ENDCHAR
STARTCHAR grave
ENCODING 96
SWIDTH 527 0
DWIDTH 13 0
BBX 6 3 2 13
BITMAP
7A4000
39EC60
0005A9
ENDCHAR
STARTCHAR a
ENCODING 97
SWIDTH 888 0
DWIDTH 21 0
BBX 18 16 1 0
BITMAP
000016ADEFEDB72000
0039C842101359EA10
00B400000000002CB0
0000000000000001E5
0000000000000000BA
0000000000000000BB
00000001468ABCDEFB
000059DFDA864321BB
006EE84100000000BB
09F7000000000000BB
4F60000000000000BB
7F10000000000000BB
6F20000000000000BB
2EA0000000000039FB
04ED631012369DB5BB
0017BDFFEDB85100BB
ENDCHAR
STARTCHAR b
ENCODING 98
SWIDTH 836 0
DWIDTH 20 0
BBX 17 16 2 0
BITMAP
4FFFFFFFFFFDA50000
4F30000000137E9000
4F300000000003F300
4F300000000000E600
4F300000000000E600
4F300000000003F300
4F30000000137E7000
4FFFFFFFFFFFD71000
4F30000000025AE600
4F3000000000008F30
4F3000000000001F80
4F3000000000000D90
4F3000000000000E80
4F3000000000005F40
4F300000000138F800
4FFFFFFFFFFEC93000
ENDCHAR
STARTCHAR c
ENCODING 99
SWIDTH 869 0
DWIDTH 21 0
BBX 19 16 1 0
BITMAP
00000159CDFEDB830000
00017EB63110237BC500
002DB200000000002930
01DA0000000000000000
09E10000000000000000
1F800000000000000000
4F400000000000000000
6F200000000000000000
6F200000000000000000
4F400000000000000000
1F800000000000000000
09E10000000000000000
01DA0000000000000000
002DB200000000002930
00018EB63100137BC500
00000159CEFEDB830000
ENDCHAR
STARTCHAR d
ENCODING 100
SWIDTH 910 0
DWIDTH 22 0
BBX 19 16 2 0
BITMAP
4FFFFFFFFFEC95100000
4F30000000137CD50000
4F3000000000006F6000
4F30000000000006F300
4F30000000000000DA00
4F300000000000008E00
4F300000000000005F20
4F300000000000004F40
4F300000000000004F40
4F300000000000005F30
4F300000000000008F00
4F30000000000000DA00
4F30000000000007F300
4F3000000000006F7000
4F30000000136CD50000
4FFFFFFFFFEC95000000
ENDCHAR
STARTCHAR e
ENCODING 101
SWIDTH 910 0
DWIDTH 22 0
BBX 20 16 1 0
BITMAP
0000027BDEFEC9400000
00019E95210148EC3000
002DB20000000008F400
01DA0000000000008E20
08E10000000000000D90
0E7000000000000007E0
4F3000000000000004F2
6FFFFFFFFFFFFFFFFFF4
6F300000000000000000
4F500000000000000000
1EA00000000000000000
09F30000000000000000
01DD2000000000000000
002DD500000000003A00
00018ED74210137CB300
0000016ACEFFEB720000
ENDCHAR
STARTCHAR f
ENCODING 102
SWIDTH 817 0
DWIDTH 20 0
BBX 17 16 2 0
BITMAP
00027BDEFFFFFFFF30
008FA5310000000000
08E400000000000000
1E8000000000000000
3F4000000000000000
4F3000000000000000
4F3000000000000000
4FFFFFFFFFFFFFFE00
4F3000000000000000
4F3000000000000000
4F3000000000000000
4F3000000000000000
4F3000000000000000
4F3000000000000000
4F3000000000000000
4F3000000000000000
ENDCHAR
STARTCHAR g
ENCODING 103
SWIDTH 910 0
DWIDTH 22 0
BBX 19 16 1 0
BITMAP
00000158CDEFEC940000
00017EC74210136AD710
002DC300000000001760
01DB1000000000000000
09E10000000000000000
1E800000000000000000
4F400000000000000000
6F200000000000000000
6F200000002FFFFFFFD0
4F4000000000000009D0
1E8000000000000009D0
09E200000000000009D0
01DC10000000000009D0
002DD4000000000009D0
00018EC7421012369EC0
00000159CEEFEDCA7300
ENDCHAR
STARTCHAR h
ENCODING 104
SWIDTH 949 0
DWIDTH 23 0
BBX 19 16 2 0
BITMAP
4F300000000000006F10
4F300000000000006F10
4F300000000000006F10
4F300000000000006F10
4F300000000000006F10
4F300000000000006F10
4F300000000000006F10
4FFFFFFFFFFFFFFFFF10
4F300000000000006F10
4F300000000000006F10
4F300000000000006F10
4F300000000000006F10
4F300000000000006F10
4F300000000000006F10
4F300000000000006F10
4F300000000000006F10
ENDCHAR
STARTCHAR i
ENCODING 105
SWIDTH 287 0
DWIDTH 7 0
BBX 3 16 2 0
BITMAP
4F30
4F30
4F30
4F30
4F30
4F30
4F30
4F30
4F30
4F30
4F30
4F30
4F30
4F30
4F30
4F30
ENDCHAR
STARTCHAR j
ENCODING 106
SWIDTH 590 0
DWIDTH 14 0
BBX 12 16 0 0
BITMAP
0000000000E8
0000000000E8
0000000000E8
0000000000E8
0000000000E8
0000000000E8
0000000000E8
0000000000E8
0000000000E8
0000000000E8
0000000000E8
0000000000F7
0000000003F4
000000001CC0
C7421016DC20
37BDEFEB6000
ENDCHAR
STARTCHAR k
ENCODING 107
SWIDTH 867 0
DWIDTH 21 0
BBX 18 16 2 0
BITMAP
4F3000000000004F30
4F3000000000009E10
4F300000000002E800
4F30000000001CD100
4F3000000002CD2000
4F300000017EA10000
4F300236AEB4000000
4FFFFFFFE710000000
4F3001248CFA300000
4F300000003AF91000
4F30000000005EB100
4F300000000003EA00
4F3000000000005F50
4F3000000000000CC0
4F30000000000007F1
4F30000000000004F4
ENDCHAR
STARTCHAR l
ENCODING 108
SWIDTH 709 0
DWIDTH 17 0
BBX 15 16 2 0
BITMAP
4F30000000000000
4F30000000000000
4F30000000000000
4F30000000000000
4F30000000000000
4F30000000000000
4F30000000000000
4F30000000000000
4F30000000000000
4F30000000000000
4F30000000000000
4F30000000000000
2F50000000000000
0CB0000000000000
03EB521000000000
0028CEFFFFFFFFC0
ENDCHAR
STARTCHAR m
ENCODING 109
SWIDTH 1246 0
DWIDTH 30 0
BBX 26 16 2 0
BITMAP
4F3005BEFD81000049DEEC6000
4F32CA41139E302BC62015CB00
4F7C30000009D6D60000001D80
4FC100000001FD3000000007E0
4F3000000000D90000000004F3
4F3000000000CA0000000003F4
4F3000000000CA0000000003F4
4F3000000000CA0000000003F4
4F3000000000CA0000000003F4
4F3000000000CA0000000003F4
4F3000000000CA0000000003F4
4F3000000000CA0000000003F4
4F3000000000CA0000000003F4
4F3000000000CA0000000003F4
4F3000000000CA0000000003F4
4F3000000000CA0000000003F4
ENDCHAR
STARTCHAR n
ENCODING 110
SWIDTH 933 0
DWIDTH 22 0
BBX 18 16 2 0
BITMAP
4F300016ADEFEB7100
4F303AEA521024AE30
4F4AE71000000008E1
4FF8100000000001E7
4F50000000000000CA
4F30000000000000BB
4F30000000000000BC
4F30000000000000BC
4F30000000000000BC
4F30000000000000BC
4F30000000000000BC
4F30000000000000BC
4F30000000000000BC
4F30000000000000BC
4F30000000000000BC
4F30000000000000BC
ENDCHAR
STARTCHAR o
ENCODING 111
SWIDTH 983 0
DWIDTH 24 0
BBX 21 16 1 0
BITMAP
00000169CDFEEC95000000
00018EA63101147CE60000
003EB200000000004DA000
02EA00000000000002E900
0AE1000000000000005F40
1F80000000000000000D90
4F40000000000000000AD0
6F200000000000000008F0
6F200000000000000008F0
4F40000000000000000AD0
1F80000000000000000D90
0AD1000000000000005F40
01EA00000000000002E900
003EB200000000004DA000
00029EA53101147CE60000
0000016ADEFFEC95000000
ENDCHAR
STARTCHAR p
ENCODING 112
SWIDTH 818 0
DWIDTH 20 0
BBX 17 16 2 0
BITMAP
4FFFFFFFFFEDA60000
4F30000000136CD200
4F300000000000CC00
4F3000000000005F30
4F3000000000002F50
4F3000000000002F50
4F3000000000005F30
4F300000000000CC00
4F30000000025DD200
4FFFFFFFFFEDA60000
4F3000000000000000
4F3000000000000000
4F3000000000000000
4F3000000000000000
4F3000000000000000
4F3000000000000000
ENDCHAR
STARTCHAR q
ENCODING 113
SWIDTH 983 0
DWIDTH 24 0
BBX 23 16 1 0
BITMAP
00000169CDFEEC9400000000
00018EA63101147CE6000000
003EB200000000004DA00000
02EA00000000000002E90000
0AE1000000000000005F3000
1F80000000000000000D9000
4F40000000000000000AD000
6F200000000000000008F000
6F200000000000000008F000
4F40000000000000000AD000
1F80000000000000000DA000
0AD1000000000000005F4000
01EA00000000000002EB0000
003EB200000000004DC10000
00029EA53101147CFFEA6300
0000016ADEFFEC950258BE20
ENDCHAR
STARTCHAR r
ENCODING 114
SWIDTH 609 0
DWIDTH 15 0
BBX 13 16 2 0
BITMAP
4F300039CEFE80
4F303CC6210230
4F38D400000000
4FCA1000000000
4F900000000000
4F300000000000
4F300000000000
4F300000000000
4F300000000000
4F300000000000
4F300000000000
4F300000000000
4F300000000000
4F300000000000
4F300000000000
4F300000000000
ENDCHAR
STARTCHAR s
ENCODING 115
SWIDTH 787 0
DWIDTH 19 0
BBX 15 16 2 0
BITMAP
0048BEEFDB610000
1BE84200237B9200
AD10000000004800
F800000000000000
EA00000000000000
5FA2000000000000
04BFA62000000000
00027BED95100000
000000037BFB5000
000000000017EB10
0000000000002EA0
00000000000008F0
00000000000009E0
A200000000003E90
4BB63100125AF900
0028BDEFEDB72000
ENDCHAR
STARTCHAR t
ENCODING 116
SWIDTH 708 0
DWIDTH 17 0
BBX 17 16 0 0
BITMAP
8FFFFFFFFFFFFFFF80
00000003F400000000
00000003F400000000
00000003F400000000
00000003F400000000
00000003F400000000
00000003F400000000
00000003F400000000
00000003F400000000
00000003F400000000
00000003F400000000
00000003F400000000
00000003F400000000
00000003F400000000
00000003F400000000
00000003F400000000
ENDCHAR
STARTCHAR u
ENCODING 117
SWIDTH 931 0
DWIDTH 22 0
BBX 18 16 2 0
BITMAP
5F20000000000000D9
5F20000000000000D9
5F20000000000000D9
5F20000000000000D9
5F20000000000000D9
5F20000000000000D9
5F20000000000000D9
5F20000000000000D9
5F20000000000000D9
5F20000000000000D9
5F20000000000000D9
4F30000000000001E9
1F6000000000005DF9
08D1000000004BC4D9
00AD6210148DC500D9
0004ADFFEB730000D9
ENDCHAR
STARTCHAR v
ENCODING 118
SWIDTH 817 0
DWIDTH 20 0
BBX 19 16 0 0
BITMAP
2F800000000000000DB0
09E10000000000006F30
02F8000000000000DB00
009E100000000006F300
002F80000000000DB000
0009E1000000006F3000
0002F800000000DA0000
00009E10000006F30000
00002F8000000DA00000
000009F100006F300000
000002F90000DA000000
0000009F2006F2000000
0000002F900DA0000000
00000009F26F20000000
00000002F9DA00000000
000000008FF200000000
ENDCHAR
STARTCHAR w
ENCODING 119
SWIDTH 1266 0
DWIDTH 30 0
BBX 29 16 1 0
BITMAP
DB00000000001EF500000000005F40
8F20000000006FEB0000000000BD00
2F8000000000BC7F2000000002F700
0AD000000002F61F8000000008F100
04F400000008F10AD00000000DA000
00DA0000000DA004F40000004F4000
007F1000004F4000DA000000AD0000
001F700000AD00007F100002F70000
000AD00001F700002F600007F10000
0004F40006F200000BC0000DA00000
0000DA000CA0000005F3004F400000
00007F103F50000000E800AD000000
00001F708E000000008E01F7000000
00000AD0E8000000002F57E1000000
000004F8F2000000000BBD90000000
000000CFB00000000005FF30000000
ENDCHAR
STARTCHAR x
ENCODING 120
SWIDTH 821 0
DWIDTH 20 0
BBX 18 16 1 0
BITMAP
2EB100000000002EC1
03EB0000000002DC10
003EA00000001DC100
0003EA000001DD1000
00004E90001CD20000
000004F901CD200000
0000005F8BE2000000
00000006FE30000000
0000000BCE70000000
000000AC13E7000000
00000AD1004E600000
00009E200005F50000
0008E30000006F5000
008F4000000007F400
07F500000000008F40
7F60000000000009E3
ENDCHAR
STARTCHAR y
ENCODING 121
SWIDTH 911 0
DWIDTH 22 0
BBX 18 16 2 0
BITMAP
DA00000000000005F2
DA00000000000005F2
DA00000000000005F2
DA00000000000005F2
CA00000000000005F2
BC00000000000008F2
7F1000000000004EF2
2E700000000004C6F2
07F4000000006C25F2
006FA520126D9105F2
00028CEFEC820006F1
000000000000000BE0
000000000000005F70
A5000000000018FA00
3BD852101259EE7000
0027BDEFEDB9500000
ENDCHAR
STARTCHAR z
ENCODING 122
SWIDTH 728 0
DWIDTH 17 0
BBX 15 16 1 0
BITMAP
0EFFFFFFFFFFFF90
000000000002ED10
00000000001CE200
0000000000AF4000
0000000008F60000
000000005F800000
00000003EB000000
0000001DD1000000
000000CE20000000
000009F400000000
00007F6000000000
0004F80000000000
002EB00000000000
01DD100000000000
0BE2000000000000
4FFFFFFFFFFFFFE0
ENDCHAR
STARTCHAR braceleft
ENCODING 123
SWIDTH 386 0
DWIDTH 9 0
BBX 9 18 0 -1
BITMAP
00004CFF10
0003F60000
0007E00000
0009D00000
0009D00000
0009D00000
000BA00000
005E300000
4FF5000000
005E200000
000C900000
0009C00000
0009D00000
0009D00000
0008D00000
0006E00000
0002F60000
00004CFF10
ENDCHAR
STARTCHAR bar
ENCODING 124
SWIDTH 259 0
DWIDTH 6 0
BBX 2 24 2 -6
BITMAP
9D
9D
9D
9D
9D
9D
9D
9D
9D
9D
9D
9D
9D
9D
9D
9D
9D
9D
9D
9D
9D
9D
9D
9D
ENDCHAR
STARTCHAR braceright
ENCODING 125
SWIDTH 386 0
DWIDTH 9 0
BBX 8 18 1 -1
BITMAP
CFD70000
003E7000
000AB000
0009D000
0009D000
0009D000
0006E000
0001D810
00002DF8
0000C910
0005F100
0008D000
0009D000
0009D000
0009C000
000AA000
003F5000
CFD70000
ENDCHAR
STARTCHAR asciitilde
ENCODING 126
SWIDTH 634 0
DWIDTH 15 0
BBX 13 3 1 7
BITMAP
01AED810000140
0B5128D9303B20
23000016CFC300
ENDCHAR
STARTCHAR nonbreakingspace
ENCODING 160
SWIDTH 375 0
DWIDTH 9 0
BBX 1 1 0 0
BITMAP
00
ENDCHAR
STARTCHAR exclamdown
ENCODING 161
SWIDTH 274 0
DWIDTH 7 0
BBX 3 16 2 0
BITMAP
9F30
9F30
0000
0000
3C00
4D00
4E00
5E00
6F00
6F00
7F10
8F20
8F20
9F30
9F30
9F30
ENDCHAR
STARTCHAR cent
ENCODING 162
SWIDTH 736 0
DWIDTH 18 0
BBX 16 18 1 -1
BITMAP
00000000E5000000
00000000E5000000
000027BDFFDB7100
001AE942E5148D81
02DB1000E5000066
0CC00000E5000000
5F400000E5000000
9E000000E5000000
BC000000E5000000
BC000000E5000000
9E000000E5000000
5F400000E5000000
0CC00000E5000000
02DB1000E5000066
001AE952E5147D81
000038BEFFEB7100
00000000E5000000
00000000E5000000
ENDCHAR
STARTCHAR sterling
ENCODING 163
SWIDTH 792 0
DWIDTH 19 0
BBX 17 16 1 0
BITMAP
00000028CEFEDA5100
000007E94100259800
00004F500000000000
0000BB000000000000
0000F7000000000000
0001F6000000000000
0001F5000000000000
8FFFFFFFFFFFF10000
0001F5000000000000
0001F5000000000000
0001F5000000000000
0002F5000000000000
0006F2000000000000
001DB0000000000000
15DFEFEC9742013770
8B73112479CEFEC710
ENDCHAR
STARTCHAR currency
ENCODING 164
SWIDTH 560 0
DWIDTH 13 0
BBX 11 11 1 3
BITMAP
3B1000000690
2DB5BED86F70
02EE512BF800
02E40000C800
07C000005D00
08A000002F00
06B000004E00
01E30000B800
02ED412AF800
2DB5CED86F70
3A1000000590
ENDCHAR
STARTCHAR yen
ENCODING 165
SWIDTH 811 0
DWIDTH 19 0
BBX 17 16 1 0
BITMAP
3F9000000000003E90
05F60000000001DC00
009F400000000BE200
000BE20000009F4000
0001DC100006F70000
00003FA0003FA00000
000006F702EC000000
0DFFFFFF5CFFFFFF50
00000008FD10000000
00000000F700000000
0DFFFFFFFFFFFFFF50
00000000F700000000
00000000F700000000
00000000F700000000
00000000F700000000
00000000F700000000
ENDCHAR
STARTCHAR brokenbar
ENCODING 166
SWIDTH 259 0
DWIDTH 6 0
BBX 2 21 2 -4
BITMAP
9D
9D
9D
9D
9D
9D
9D
9D
9D
00
00
00
9D
9D
9D
9D
9D
9D
9D
9D
9D
ENDCHAR
STARTCHAR section
ENCODING 167
SWIDTH 500 0
DWIDTH 12 0
BBX 10 16 1 0
BITMAP
006CEFC610
07E5102860
0CA0000000
08E3000000
00BF920000
09D6AFB300
5F1002AF80
8E000005F6
4F900000E8
05ED6004F4
0017ED9E60
000006EC10
0000002EA0
0000000AC0
0B62016E70
039DFEB500
ENDCHAR
STARTCHAR dieresis
ENCODING 168
SWIDTH 527 0
DWIDTH 13 0
BBX 7 2 3 13
BITMAP
DD003F80
DD003F80
ENDCHAR
STARTCHAR copyright
ENCODING 169
SWIDTH 770 0
DWIDTH 19 0
BBX 17 16 1 0
BITMAP
000017CEFDA4000000
0006E941026DB10000
008D200000007E2000
05D103AEFD8207C000
0E404E92027900B600
5C00D9000000004D00
A704F2000000000E20
C506E0000000000D40
C506E0000000000C40
A704F2000000000E20
5C00D9000000004D00
0E404E92027900B700
05D103AEFD9207C100
008D200000007E2000
0006E941026CB10000
000017CEFDA4000000
ENDCHAR
STARTCHAR ordfeminine
ENCODING 170
SWIDTH 497 0
DWIDTH 12 0
BBX 11 10 0 6
BITMAP
005ADFED9300
069410138F30
000000000B90
00169BCEEF90
08EA64311A90
3F3000000A90
2F720125AF90
04AEFFEC6A90
000000000000
0EFFFFFFFF90
ENDCHAR
STARTCHAR guillemotleft
ENCODING 171
SWIDTH 440 0
DWIDTH 11 0
BBX 9 9 1 4
BITMAP
002B100A40
01CC009E20
0AD105F400
7E303E7000
F800AC0000
7E303E7000
0AD105F400
01CC009E20
002B100B40
ENDCHAR
STARTCHAR logicalnot
ENCODING 172
SWIDTH 634 0
DWIDTH 15 0
BBX 12 5 2 5
BITMAP
FFFFFFFFFFF3
0000000001F3
0000000001F3
0000000001F3
0000000001F3
ENDCHAR
STARTCHAR uni00AD
ENCODING 173
SWIDTH 540 0
DWIDTH 13 0
BBX 11 1 1 7
BITMAP
1FFFFFFFFF10
ENDCHAR
STARTCHAR registered
ENCODING 174
SWIDTH 600 0
DWIDTH 14 0
BBX 13 12 1 4
BITMAP
0005BEEC710000
00AC51139D3000
09A2FFFC35D100
3D02E018B08800
8702E019B01D00
A402FFFD300D10
A402E02D100D10
8702E009801D00
3D02E002E28800
09A0000005D100
00AC51039D3000
0005BEFC710000
ENDCHAR
STARTCHAR macron
ENCODING 175
SWIDTH 527 0
DWIDTH 13 0
BBX 7 1 3 14
BITMAP
DFFFFF80
ENDCHAR
STARTCHAR degree
ENCODING 176
SWIDTH 373 0
DWIDTH 9 0
BBX 7 6 1 10
BITMAP
03CEB200
1E617D10
5C000D40
5C000D40
1E617D10
03CEB200
ENDCHAR
STARTCHAR plusminus
ENCODING 177
SWIDTH 634 0
DWIDTH 15 0
BBX 12 12 2 1
BITMAP
00000F400000
00000F400000
00000F400000
00000F400000
FFFFFFFFFFF3
00000F400000
00000F400000
00000F400000
00000F400000
000000000000
000000000000
FFFFFFFFFFF3
ENDCHAR
STARTCHAR twosuperior
ENCODING 178
SWIDTH 511 0
DWIDTH 12 0
BBX 11 10 0 6
BITMAP
038CEFDC8100
0C731025BE20
000000000CA0
000000000AB0
000000005F40
00000008E500
000005DB2000
0004CD400000
03BE60000000
2FFFFFFFFFE0
ENDCHAR
STARTCHAR threesuperior
ENCODING 179
SWIDTH 512 0
DWIDTH 12 0
BBX 11 10 0 6
BITMAP
039CEFEC8200
0B521014BE10
000000001F40
00000136CA00
0000FFFD6000
00000125BC10
000000000C90
000000000C90
2A521125BE30
049DEFEC8100
ENDCHAR
STARTCHAR acute
ENCODING 180
SWIDTH 527 0
DWIDTH 13 0
BBX 6 3 5 13
BITMAP
0006C3
18EC71
C83000
ENDCHAR
STARTCHAR micro
ENCODING 181
SWIDTH 705 0
DWIDTH 17 0
BBX 15 16 0 -5
BITMAP
0003F40000000D90
0006F10000001F60
0009D00000004F30
000CA00000007F00
000E70000000AC00
003F40000000D900
006F10000001F600
008F1000000AF400
00BF7000009AF300
00E8D6114C72F400
02F43BEDA300E800
05F1000000000000
08E0000000000000
0BB0000000000000
0E80000000000000
2F50000000000000
ENDCHAR
STARTCHAR paragraph
ENCODING 182
SWIDTH 585 0
DWIDTH 14 0
BBX 11 16 1 0
BITMAP
0039DEFFFF30
06FFFFD00D30
2FFFFFD00D30
7FFFFFD00D30
8FFFFFD00D30
7FFFFFD00D30
2FFFFFD00D30
06FFFFD00D30
0039DED00D30
000003D00D30
000003D00D30
000003D00D30
000003D00D30
000003D00D30
000003D00D30
000003D00D30
ENDCHAR
STARTCHAR periodcentered
ENCODING 183
SWIDTH 185 0
DWIDTH 4 0
BBX 3 3 1 7
BITMAP
CF40
CF40
CF40
ENDCHAR
STARTCHAR cedilla
ENCODING 184
SWIDTH 527 0
DWIDTH 13 0
BBX 6 5 3 -5
BITMAP
003C00
009FD6
00007E
00018E
5FFFC4
ENDCHAR
STARTCHAR onesuperior
ENCODING 185
SWIDTH 261 0
DWIDTH 6 0
BBX 5 10 0 6
BITMAP
27DF20
A85F20
004F20
004F20
004F20
004F20
004F20
004F20
004F20
004F20
ENDCHAR
STARTCHAR ordmasculine
ENCODING 186
SWIDTH 520 0
DWIDTH 12 0
BBX 12 10 0 6
BITMAP
0018CEFEA500
03EA41026DA0
0D80000002E6
3F100000009B
3F100000009B
0D80000002E6
04EA41026DA0
0028CEFEA500
000000000000
0BFFFFFFFFF3
ENDCHAR
STARTCHAR guillemotright
ENCODING 187
SWIDTH 440 0
DWIDTH 11 0
BBX 9 9 1 4
BITMAP
95005A0000
8E303F7000
0AD106F400
01CB008E20
004F400E90
01CB008E20
0AD106F400
8E303F7000
95005A0000
ENDCHAR
STARTCHAR onequarter
ENCODING 188
SWIDTH 857 0
DWIDTH 21 0
BBX 20 16 0 0
BITMAP
16CF4000000000AD1000
793F4000000007E30000
000F400000004F500000
000F40000002E8000000
000F4000001CB0000000
000F400000AD10000000
000F400007E200000000
000F40004F50002EF200
000F4002E80001C9F200
0000001CB0000B83F200
000000AD10009903F200
000007E20007A003F200
00004F50005B0003F200
0002E80003FFFFFFFFF6
001CA00000000003F200
00AD100000000003F200
ENDCHAR
STARTCHAR onehalf
ENCODING 189
SWIDTH 937 0
DWIDTH 22 0
BBX 21 16 0 0
BITMAP
16CF4000000000AD100000
793F4000000007E3000000
000F400000004F50000000
000F40000002E800000000
000F4000001CB000000000
000F400000AD1000000000
000F400007E20000000000
000F40004F5016CEED9200
000F4002E800883103AE20
0000001CB0000000000E70
000000AD10000000001F60
000007E20000000001BB00
00004F50000000004DA100
0002E8000000002AE50000
001CA000000017E9100000
00AD10000000AFFFFFFF80
ENDCHAR
STARTCHAR threequarters
ENCODING 190
SWIDTH 978 0
DWIDTH 23 0
BBX 22 16 1 0
BITMAP
18DFEC8100000000BC0000
872014CC00000008E10000
0000006F0000005F300000
000014C8000003F6000000
003FFE7000001D90000000
000014AC1000BC00000000
0000001F4009E100000000
951013AE106F30003EF000
39DFED9203F60002EAF000
000000001D90002D65F000
00000000BC0001D705F000
00000009D1001C8005F000
0000006F3000B90005F000
000003F60006FFFFFFFFF4
00001D900000000005F000
0000BC000000000005F000
ENDCHAR
STARTCHAR questiondown
ENCODING 191
SWIDTH 568 0
DWIDTH 14 0
BBX 12 16 1 0
BITMAP
0000000DE000
0000000DE000
000000000000
000000000000
00000008E000
00000008E000
000016BFE000
0007EEA51000
01CF81000000
0BE300000000
3F7000000000
5F3000000000
3F5000000000
0CC100000063
02DD62115B90
0017BDFEA400
ENDCHAR
STARTCHAR Agrave
ENCODING 192
SWIDTH 812 0
DWIDTH 20 0
BBX 19 20 0 0
BITMAP
000001C7100000000000
0000016CE92000000000
0000000028D100000000
00000000000000000000
000000005FD000000000
00000000D9E600000000
00000006E17E10000000
0000001E700D70000000
0000007E1006E1000000
000001E60000D8000000
000008D000005E100000
00001E5000000C900000
00009C00000004F20000
0002F400000000BA0000
0009FFFFFFFFFFFF3000
002E100000000008A000
00AA000000000002F300
03F3000000000000AB00
0BB00000000000003F40
4F500000000000000CC0
ENDCHAR
STARTCHAR Aacute
ENCODING 193
SWIDTH 812 0
DWIDTH 20 0
BBX 19 20 0 0
BITMAP
000000000003A9000000
0000000005BE93000000
000000007B5100000000
00000000000000000000
000000005FD000000000
00000000D9E600000000
00000006E17E10000000
0000001E700D70000000
0000007E1006E1000000
000001E60000D8000000
000008D000005E100000
00001E5000000C900000
00009C00000004F20000
0002F400000000BA0000
0009FFFFFFFFFFFF3000
002E100000000008A000
00AA000000000002F300
03F3000000000000AB00
0BB00000000000003F40
4F500000000000000CC0
ENDCHAR
STARTCHAR Acircumflex
ENCODING 194
SWIDTH 812 0
DWIDTH 20 0
BBX 19 20 0 0
BITMAP
000000006DA300000000
0000016DB57EA3000000
000008A300006C200000
00000000000000000000
000000005FD000000000
00000000D9E600000000
00000006E17E10000000
0000001E700D70000000
0000007E1006E1000000
000001E60000D8000000
000008D000005E100000
00001E5000000C900000
00009C00000004F20000
0002F400000000BA0000
0009FFFFFFFFFFFF3000
002E100000000008A000
00AA000000000002F300
03F3000000000000AB00
0BB00000000000003F40
4F500000000000000CC0
ENDCHAR
STARTCHAR Atilde
ENCODING 195
SWIDTH 812 0
DWIDTH 20 0
BBX 19 20 0 0
BITMAP
0000005EC4004D000000
000001E34D8199000000
000004C0019EC1000000
00000000000000000000
000000005FD000000000
00000000D9E600000000
00000006E17E10000000
0000001E700D70000000
0000007E1006E1000000
000001E60000D8000000
000008D000005E100000
00001E5000000C900000
00009C00000004F20000
0002F400000000BA0000
0009FFFFFFFFFFFF3000
002E100000000008A000
00AA000000000002F300
03F3000000000000AB00
0BB00000000000003F40
4F500000000000000CC0
ENDCHAR
STARTCHAR Adieresis
ENCODING 196
SWIDTH 812 0
DWIDTH 20 0
BBX 19 19 0 0
BITMAP
0000007F400BF0000000
0000007F400BF0000000
00000000000000000000
000000005FD000000000
00000000D9E600000000
00000006E17E10000000
0000001E700D70000000
0000007E1006E1000000
000001E60000D8000000
000008D000005E100000
00001E5000000C900000
00009C00000004F20000
0002F400000000BA0000
0009FFFFFFFFFFFF3000
002E100000000008A000
00AA000000000002F300
03F3000000000000AB00
0BB00000000000003F40
4F500000000000000CC0
ENDCHAR
STARTCHAR Aring
ENCODING 197
SWIDTH 812 0
DWIDTH 20 0
BBX 19 21 0 0
BITMAP
00000005CEEA20000000
0000002F401AB0000000
0000002F401AB0000000
00000005CEEA20000000
00000000000000000000
000000005FD000000000
00000000D9E600000000
00000006E17E10000000
0000001E700D70000000
0000007E1006E1000000
000001E60000D8000000
000008D000005E100000
00001E5000000C900000
00009C00000004F20000
0002F400000000BA0000
0009FFFFFFFFFFFF3000
002E100000000008A000
00AA000000000002F300
03F3000000000000AB00
0BB00000000000003F40
4F500000000000000CC0
ENDCHAR
STARTCHAR AE
ENCODING 198
SWIDTH 1172 0
DWIDTH 28 0
BBX 27 16 0 0
BITMAP
00000000007FFFFFFFFFFFFFFF20
0000000002E54F50000000000000
000000000CA04F50000000000000
000000007D104F50000000000000
00000003F4004F50000000000000
0000000C90004F50000000000000
0000008D10004F50000000000000
000003F400004FFFFFFFFFFFF800
00001D9000004F50000000000000
00009D1000004F50000000000000
0004FFFFFFFFFF50000000000000
001D600000004F50000000000000
009D000000004F50000000000000
04F5000000004F50000000000000
1EB0000000004F50000000000000
AF30000000004FFFFFFFFFFFFF50
ENDCHAR
STARTCHAR Ccedilla
ENCODING 199
SWIDTH 869 0
DWIDTH 21 0
BBX 19 21 1 -5
BITMAP
00000159CDFEDB830000
00017EB63110237BC500
002DB200000000002930
01DA0000000000000000
09E10000000000000000
1F800000000000000000
4F400000000000000000
6F200000000000000000
6F200000000000000000
4F400000000000000000
1F800000000000000000
09E10000000000000000
01DA0000000000000000
002DB200000000002930
00018EB63100137BC500
00000159CEFEDB830000
00000000088000000000
000000000DFC30000000
00000000001AB0000000
00000000001AA0000000
00000008FFEB20000000
ENDCHAR
STARTCHAR Egrave
ENCODING 200
SWIDTH 754 0
DWIDTH 18 0
BBX 15 20 2 0
BITMAP
0008A30000000000
00039EC500000000
0000005B80000000
0000000000000000
4FFFFFFFFFFFFF20
4F40000000000000
4F40000000000000
4F40000000000000
4F40000000000000
4F40000000000000
4F40000000000000
4FFFFFFFFFFFF800
4F40000000000000
4F40000000000000
4F40000000000000
4F40000000000000
4F40000000000000
4F40000000000000
4F40000000000000
4FFFFFFFFFFFFF40
ENDCHAR
STARTCHAR Eacute
ENCODING 201
SWIDTH 754 0
DWIDTH 18 0
BBX 15 20 2 0
BITMAP
0000000016C20000
00000028EC610000
000000C830000000
0000000000000000
4FFFFFFFFFFFFF20
4F40000000000000
4F40000000000000
4F40000000000000
4F40000000000000
4F40000000000000
4F40000000000000
4FFFFFFFFFFFF800
4F40000000000000
4F40000000000000
4F40000000000000
4F40000000000000
4F40000000000000
4F40000000000000
4F40000000000000
4FFFFFFFFFFFFF40
ENDCHAR
STARTCHAR Ecircumflex
ENCODING 202
SWIDTH 754 0
DWIDTH 18 0
BBX 15 20 2 0
BITMAP
0000029D60000000
0003AE85BE710000
001C610002990000
0000000000000000
4FFFFFFFFFFFFF20
4F40000000000000
4F40000000000000
4F40000000000000
4F40000000000000
4F40000000000000
4F40000000000000
4FFFFFFFFFFFF800
4F40000000000000
4F40000000000000
4F40000000000000
4F40000000000000
4F40000000000000
4F40000000000000
4F40000000000000
4FFFFFFFFFFFFF40
ENDCHAR
STARTCHAR Edieresis
ENCODING 203
SWIDTH 754 0
DWIDTH 18 0
BBX 15 19 2 0
BITMAP
0000EC003F800000
0000EC003F800000
0000000000000000
4FFFFFFFFFFFFF20
4F40000000000000
4F40000000000000
4F40000000000000
4F40000000000000
4F40000000000000
4F40000000000000
4FFFFFFFFFFFF800
4F40000000000000
4F40000000000000
4F40000000000000
4F40000000000000
4F40000000000000
4F40000000000000
4F40000000000000
4FFFFFFFFFFFFF40
ENDCHAR
STARTCHAR Igrave
ENCODING 204
SWIDTH 287 0
DWIDTH 7 0
BBX 6 20 -1 0
BITMAP
6B5000
28DD61
0004AA
000000
0004F3
0004F3
0004F3
0004F3
0004F3
0004F3
0004F3
0004F3
0004F3
0004F3
0004F3
0004F3
0004F3
0004F3
0004F3
0004F3
ENDCHAR
STARTCHAR Iacute
ENCODING 205
SWIDTH 287 0
DWIDTH 7 0
BBX 6 20 2 0
BITMAP
0005C4
17DD72
B93000
000000
4F3000
4F3000
4F3000
4F3000
4F3000
4F3000
4F3000
4F3000
4F3000
4F3000
4F3000
4F3000
4F3000
4F3000
4F3000
4F3000
ENDCHAR
STARTCHAR Icircumflex
ENCODING 206
SWIDTH 287 0
DWIDTH 7 0
BBX 9 20 -1 0
BITMAP
0018D71000
29E94AE810
C7100028B0
0000000000
0004F30000
0004F30000
0004F30000
0004F30000
0004F30000
0004F30000
0004F30000
0004F30000
0004F30000
0004F30000
0004F30000
0004F30000
0004F30000
0004F30000
0004F30000
0004F30000
ENDCHAR
STARTCHAR Idieresis
ENCODING 207
SWIDTH 287 0
DWIDTH 7 0
BBX 7 19 0 0
BITMAP
CF001FA0
CF001FA0
00000000
004F3000
004F3000
004F3000
004F3000
004F3000
004F3000
004F3000
004F3000
004F3000
004F3000
004F3000
004F3000
004F3000
004F3000
004F3000
004F3000
ENDCHAR
STARTCHAR Eth
ENCODING 208
SWIDTH 910 0
DWIDTH 22 0
BBX 21 16 0 0
BITMAP
004FFFFFFFEECA84000000
004F3000001136AED50000
004F3000000000019F7000
004F30000000000008F300
004F30000000000001DA00
004F300000000000009F00
004F300000000000005F30
AFFFFFFFFFC00000004F40
004F300000000000004F40
004F300000000000005F30
004F300000000000008F00
004F30000000000000DA00
004F30000000000007F300
004F3000000000006F7000
004F30000001248DD50000
004FFFFFFFEEDB83000000
ENDCHAR
STARTCHAR Ntilde
ENCODING 209
SWIDTH 936 0
DWIDTH 22 0
BBX 18 20 2 0
BITMAP
000001CE8000C50000
000009919D43E10000
00000D4005DE600000
000000000000000000
4FC1000000000000AC
4FEB100000000000AC
4F5DB00000000000AC
4F32EB0000000000AC
4F302EA000000000AC
4F3003EA00000000AC
4F30003EA0000000AC
4F300003E9000000AC
4F3000003E900000AC
4F30000003E80000AC
4F300000004E8000AC
4F3000000004F800AC
4F30000000004F70AC
4F300000000004F7AC
4F3000000000005FEC
4F30000000000005FC
ENDCHAR
STARTCHAR Ograve
ENCODING 210
SWIDTH 983 0
DWIDTH 24 0
BBX 21 20 1 0
BITMAP
0000001C71000000000000
00000016BE920000000000
00000000028D2000000000
0000000000000000000000
00000169CDFEEC95000000
00018EA63101147CE60000
003EB200000000004DA000
02EA00000000000002E900
0AE1000000000000005F40
1F80000000000000000D90
4F40000000000000000AD0
6F200000000000000008F0
6F200000000000000008F0
4F40000000000000000AD0
1F80000000000000000D90
0AD1000000000000005F40
01EA00000000000002E900
003EB200000000004DA000
00029EA53101147CE60000
0000016ADEFFEC95000000
ENDCHAR
STARTCHAR Oacute
ENCODING 211
SWIDTH 983 0
DWIDTH 24 0
BBX 21 20 1 0
BITMAP
0000000000003990000000
00000000004BEA40000000
0000000006B61000000000
0000000000000000000000
00000169CDFEEC95000000
00018EA63101147CE60000
003EB200000000004DA000
02EA00000000000002E900
0AE1000000000000005F40
1F80000000000000000D90
4F40000000000000000AD0
6F200000000000000008F0
6F200000000000000008F0
4F40000000000000000AD0
1F80000000000000000D90
0AD1000000000000005F40
01EA00000000000002E900
003EB200000000004DA000
00029EA53101147CE60000
0000016ADEFFEC95000000
ENDCHAR
STARTCHAR Ocircumflex
ENCODING 212
SWIDTH 983 0
DWIDTH 24 0
BBX 21 20 1 0
BITMAP
0000000005CA3000000000
00000006DC57DB40000000
0000007A300005C2000000
0000000000000000000000
00000169CDFEEC95000000
00018EA63101147CE60000
003EB200000000004DA000
02EA00000000000002E900
0AE1000000000000005F40
1F80000000000000000D90
4F40000000000000000AD0
6F200000000000000008F0
6F200000000000000008F0
4F40000000000000000AD0
1F80000000000000000D90
0AD1000000000000005F40
01EA00000000000002E900
003EB200000000004DA000
00029EA53101147CE60000
0000016ADEFFEC95000000
ENDCHAR
STARTCHAR Otilde
ENCODING 213
SWIDTH 983 0
DWIDTH 24 0
BBX 21 20 1 0
BITMAP
00000005ED4003E0000000
0000000E43D918A0000000
0000003D0018EC20000000
0000000000000000000000
00000169CDFEEC95000000
00018EA63101147CE60000
003EB200000000004DA000
02EA00000000000002E900
0AE1000000000000005F40
1F80000000000000000D90
4F40000000000000000AD0
6F200000000000000008F0
6F200000000000000008F0
4F40000000000000000AD0
1F80000000000000000D90
0AD1000000000000005F40
01EA00000000000002E900
003EB200000000004DA000
00029EA53101147CE60000
0000016ADEFFEC95000000
ENDCHAR
STARTCHAR Odieresis
ENCODING 214
SWIDTH 983 0
DWIDTH 24 0
BBX 21 19 1 0
BITMAP
00000006F500AF10000000
00000006F500AF10000000
0000000000000000000000
00000169CDFEEC95000000
00018EA63101147CE60000
003EB200000000004DA000
02EA00000000000002E900
0AE1000000000000005F40
1F80000000000000000D90
4F40000000000000000AD0
6F200000000000000008F0
6F200000000000000008F0
4F40000000000000000AD0
1F80000000000000000D90
0AD1000000000000005F40
01EA00000000000002E900
003EB200000000004DA000
00029EA53101147CE60000
0000016ADEFFEC95000000
ENDCHAR
STARTCHAR multiply
ENCODING 215
SWIDTH 634 0
DWIDTH 15 0
BBX 11 10 2 3
BITMAP
1B2000001A30
0BD20001BD20
01BD201BD200
001BD2BD2000
0001BFD20000
0000BFD20000
000BE3CD2000
00BE201CD100
0BE20001CD10
1B2000001B30
ENDCHAR
STARTCHAR Oslash
ENCODING 216
SWIDTH 983 0
DWIDTH 24 0
BBX 21 20 1 -2
BITMAP
00000000000000001D8000
00000000000000009C0000
00000169CDFEDC87F30000
00018EA6310114AFE50000
003EB200000001D85DA000
02EA000000000AC002E900
0AE1000000006E20005F40
1F8000000002E600000DA0
4F400000000CA000000AD0
6F200000008D10000008F0
6F20000004F400000008F0
4F4000001E800000000AD0
1F800000BC000000000DA0
09D00007E2000000005F40
02EA003F5000000002EA00
003EB3D9000000004DA100
0001AFF63101147CE60000
00007E6ACEFFEC95000000
0003F50000000000000000
000CA00000000000000000
ENDCHAR
STARTCHAR Ugrave
ENCODING 217
SWIDTH 891 0
DWIDTH 21 0
BBX 17 20 2 0
BITMAP
00002C610000000000
000016CE8200000000
000000038C10000000
000000000000000000
7F0000000000000AC0
7F0000000000000AC0
7F0000000000000AC0
7F0000000000000AC0
7F0000000000000AC0
7F0000000000000AC0
7F0000000000000AC0
7F0000000000000AC0
7F0000000000000AC0
7F0000000000000AC0
7F0000000000000AC0
5F1000000000000BB0
1F7000000000002E70
08F50000000002CD10
007EC63101259FB100
00016ADEFEEB830000
ENDCHAR
STARTCHAR Uacute
ENCODING 218
SWIDTH 891 0
DWIDTH 21 0
BBX 17 20 2 0
BITMAP
00000000003A800000
000000005CE9300000
00000008B500000000
000000000000000000
7F0000000000000AC0
7F0000000000000AC0
7F0000000000000AC0
7F0000000000000AC0
7F0000000000000AC0
7F0000000000000AC0
7F0000000000000AC0
7F0000000000000AC0
7F0000000000000AC0
7F0000000000000AC0
7F0000000000000AC0
5F1000000000000BB0
1F7000000000002E70
08F50000000002CD10
007EC63101259FB100
00016ADEFEEB830000
ENDCHAR
STARTCHAR Ucircumflex
ENCODING 219
SWIDTH 891 0
DWIDTH 21 0
BBX 17 20 2 0
BITMAP
00000006D920000000
000017EB58EA300000
000089300016C10000
000000000000000000
7F0000000000000AC0
7F0000000000000AC0
7F0000000000000AC0
7F0000000000000AC0
7F0000000000000AC0
7F0000000000000AC0
7F0000000000000AC0
7F0000000000000AC0
7F0000000000000AC0
7F0000000000000AC0
7F0000000000000AC0
5F1000000000000BB0
1F7000000000002E70
08F50000000002CD10
007EC63101259FB100
00016ADEFEEB830000
ENDCHAR
STARTCHAR Udieresis
ENCODING 220
SWIDTH 891 0
DWIDTH 21 0
BBX 17 19 2 0
BITMAP
000008F400CE000000
000008F400CE000000
000000000000000000
7F0000000000000AC0
7F0000000000000AC0
7F0000000000000AC0
7F0000000000000AC0
7F0000000000000AC0
7F0000000000000AC0
7F0000000000000AC0
7F0000000000000AC0
7F0000000000000AC0
7F0000000000000AC0
7F0000000000000AC0
5F1000000000000BB0
1F7000000000002E70
08F50000000002CD10
007EC63101259FB100
00016ADEFEEB830000
ENDCHAR
STARTCHAR Yacute
ENCODING 221
SWIDTH 763 0
DWIDTH 18 0
BBX 17 20 1 0
BITMAP
00000000017C100000
000000029EB6100000
0000001D8200000000
000000000000000000
BE200000000000BE20
1DC10000000008F400
02EA000000005F6000
004F70000003E90000
0007F500001DB00000
00009E3000CD100000
00000CD109E3000000
000001DB7F50000000
0000003EF700000000
00000009E000000000
00000009D000000000
00000009D000000000
00000009D000000000
00000009D000000000
00000009D000000000
00000009D000000000
ENDCHAR
STARTCHAR Thorn
ENCODING 222
SWIDTH 787 0
DWIDTH 19 0
BBX 16 16 2 0
BITMAP
4F30000000000000
4F30000000000000
4F30000000000000
4FFFFFFFFEDA6100
4F3000000136DD30
4F30000000001CD0
4F300000000004F4
4F300000000002F6
4F300000000002F6
4F300000000004F4
4F30000000000CD0
4F3000000025DD30
4FFFFFFFFEDB6100
4F30000000000000
4F30000000000000
4F30000000000000
ENDCHAR
STARTCHAR germandbls
ENCODING 223
SWIDTH 863 0
DWIDTH 21 0
BBX 18 16 2 0
BITMAP
00027BDEFEDA610000
008E95210136CE7000
0AD20000000007F600
5F200000000000BC00
AC000000000000AD00
BA000000000003E800
CA00000000249E9000
CA0008FFFFFFF71000
CA00000001348DE700
CA0000000000007F90
CA00000000000009F2
CA00000000000004F4
CA00000000000006F2
CA0000000000002DA0
CA00D953101249EA10
CA0026ACEFFEC83000
ENDCHAR
STARTCHAR agrave
ENCODING 224
SWIDTH 888 0
DWIDTH 21 0
BBX 18 20 1 0
BITMAP
000004C50000000000
0000027DD710000000
0000000039B0000000
000000000000000000
000016ADEFEDB72000
0039C842101359EA10
00B400000000002CB0
0000000000000001E5
0000000000000000BA
0000000000000000BB
00000001468ABCDEFB
000059DFDA864321BB
006EE84100000000BB
09F7000000000000BB
4F60000000000000BB
7F10000000000000BB
6F20000000000000BB
2EA0000000000039FB
04ED631012369DB5BB
0017BDFFEDB85100BB
ENDCHAR
STARTCHAR aacute
ENCODING 225
SWIDTH 888 0
DWIDTH 21 0
BBX 18 20 1 0
BITMAP
000000000004B60000
0000000016DD820000
00000000AA40000000
000000000000000000
000016ADEFEDB72000
0039C842101359EA10
00B400000000002CB0
0000000000000001E5
0000000000000000BA
0000000000000000BB
00000001468ABCDEFB
000059DFDA864321BB
006EE84100000000BB
09F7000000000000BB
4F60000000000000BB
7F10000000000000BB
6F20000000000000BB
2EA0000000000039FB
04ED631012369DB5BB
0017BDFFEDB85100BB
ENDCHAR
STARTCHAR acircumflex
ENCODING 226
SWIDTH 888 0
DWIDTH 21 0
BBX 18 20 1 0
BITMAP
000000017D81000000
0000018EA49E920000
00000A8200017C0000
000000000000000000
000016ADEFEDB72000
0039C842101359EA10
00B400000000002CB0
0000000000000001E5
0000000000000000BA
0000000000000000BB
00000001468ABCDEFB
000059DFDA864321BB
006EE84100000000BB
09F7000000000000BB
4F60000000000000BB
7F10000000000000BB
6F20000000000000BB
2EA0000000000039FB
04ED631012369DB5BB
0017BDFFEDB85100BB
ENDCHAR
STARTCHAR atilde
ENCODING 227
SWIDTH 888 0
DWIDTH 21 0
BBX 18 20 1 0
BITMAP
0000008EB2007A0000
000003E25E61C60000
0000079002BFA00000
000000000000000000
000016ADEFEDB72000
0039C842101359EA10
00B400000000002CB0
0000000000000001E5
0000000000000000BA
0000000000000000BB
00000001468ABCDEFB
000059DFDA864321BB
006EE84100000000BB
09F7000000000000BB
4F60000000000000BB
7F10000000000000BB
6F20000000000000BB
2EA0000000000039FB
04ED631012369DB5BB
0017BDFFEDB85100BB
ENDCHAR
STARTCHAR adieresis
ENCODING 228
SWIDTH 888 0
DWIDTH 21 0
BBX 18 19 1 0
BITMAP
000000AF100EC00000
000000AF100EC00000
000000000000000000
000016ADEFEDB72000
0039C842101359EA10
00B400000000002CB0
0000000000000001E5
0000000000000000BA
0000000000000000BB
00000001468ABCDEFB
000059DFDA864321BB
006EE84100000000BB
09F7000000000000BB
4F60000000000000BB
7F10000000000000BB
6F20000000000000BB
2EA0000000000039FB
04ED631012369DB5BB
0017BDFFEDB85100BB
ENDCHAR
STARTCHAR aring
ENCODING 229
SWIDTH 888 0
DWIDTH 21 0
BBX 18 21 1 0
BITMAP
00000007DFD8000000
0000006D302C700000
0000006D202C700000
00000008DFD9000000
000000000000000000
000016ADEFEDB72000
0039C842101359EA10
00B400000000002CB0
0000000000000001E5
0000000000000000BA
0000000000000000BB
00000001468ABCDEFB
000059DFDA864321BB
006EE84100000000BB
09F7000000000000BB
4F60000000000000BB
7F10000000000000BB
6F20000000000000BB
2EA0000000000039FB
04ED631012369DB5BB
0017BDFFEDB85100BB
ENDCHAR
STARTCHAR ae
ENCODING 230
SWIDTH 1551 0
DWIDTH 37 0
BBX 35 16 1 0
BITMAP
000016ADEFECB7200000027CEFEDB7200000
0039C842101359E80001AD7310125AF91000
00B400000000002CA03D70000000002CD100
0000000000000001E5D5000000000001CB00
0000000000000000BF900000000000003F40
0000000000000000BF200000000000000C90
00000001468ABCDEFD0000000000000009C0
000059DFDA864321BFFFFFFFFFFFFFFFFFD0
006EE94100000000BC000000000000000000
09F70000000000009F000000000000000000
4F600000000000005F500000000000000000
7F100000000000001EC00000000000000000
6F200000000000007DD90000000000000000
2EA000000000016D911CB200000000005700
04ED63100147AD8200017EB63101258D8100
0017BDFFEDB840000000016ACEFEDA610000
ENDCHAR
STARTCHAR ccedilla
ENCODING 231
SWIDTH 869 0
DWIDTH 21 0
BBX 19 21 1 -5
BITMAP
00000159CDFEDB830000
00017EB63110237BC500
002DB200000000002930
01DA0000000000000000
09E10000000000000000
1F800000000000000000
4F400000000000000000
6F200000000000000000
6F200000000000000000
4F400000000000000000
1F800000000000000000
09E10000000000000000
01DA0000000000000000
002DB200000000002930
00018EB63100137BC500
00000159CEFEDB830000
00000000088000000000
000000000DFC30000000
00000000001AB0000000
00000000001AA0000000
00000008FFEB20000000
ENDCHAR
STARTCHAR egrave
ENCODING 232
SWIDTH 910 0
DWIDTH 22 0
BBX 20 20 1 0
BITMAP
000000C8200000000000
0000005BFA3000000000
0000000017C300000000
00000000000000000000
0000027BDEFEC9400000
00019E95210148EC3000
002DB20000000008F400
01DA0000000000008E20
08E10000000000000D90
0E7000000000000007E0
4F3000000000000004F2
6FFFFFFFFFFFFFFFFFF4
6F300000000000000000
4F500000000000000000
1EA00000000000000000
09F30000000000000000
01DD2000000000000000
002DD500000000003A00
00018ED74210137CB300
0000016ACEFFEB720000
ENDCHAR
STARTCHAR eacute
ENCODING 233
SWIDTH 910 0
DWIDTH 22 0
BBX 20 20 1 0
BITMAP
0000000000028B000000
0000000004AEA5000000
000000004C6100000000
00000000000000000000
0000027BDEFEC9400000
00019E95210148EC3000
002DB20000000008F400
01DA0000000000008E20
08E10000000000000D90
0E7000000000000007E0
4F3000000000000004F2
6FFFFFFFFFFFFFFFFFF4
6F300000000000000000
4F500000000000000000
1EA00000000000000000
09F30000000000000000
01DD2000000000000000
002DD500000000003A00
00018ED74210137CB300
0000016ACEFFEB720000
ENDCHAR
STARTCHAR ecircumflex
ENCODING 234
SWIDTH 910 0
DWIDTH 22 0
BBX 20 20 1 0
BITMAP
000000004CB400000000
0000005CC66DC5000000
000005B400005B400000
00000000000000000000
0000027BDEFEC9400000
00019E95210148EC3000
002DB20000000008F400
01DA0000000000008E20
08E10000000000000D90
0E7000000000000007E0
4F3000000000000004F2
6FFFFFFFFFFFFFFFFFF4
6F300000000000000000
4F500000000000000000
1EA00000000000000000
09F30000000000000000
01DD2000000000000000
002DD500000000003A00
00018ED74210137CB300
0000016ACEFFEB720000
ENDCHAR
STARTCHAR edieresis
ENCODING 235
SWIDTH 910 0
DWIDTH 22 0
BBX 20 19 1 0
BITMAP
0000004F7008F3000000
0000004F7008F3000000
00000000000000000000
0000027BDEFEC9400000
00019E95210148EC3000
002DB20000000008F400
01DA0000000000008E20
08E10000000000000D90
0E7000000000000007E0
4F3000000000000004F2
6FFFFFFFFFFFFFFFFFF4
6F300000000000000000
4F500000000000000000
1EA00000000000000000
09F30000000000000000
01DD2000000000000000
002DD500000000003A00
00018ED74210137CB300
0000016ACEFFEB720000
ENDCHAR
STARTCHAR igrave
ENCODING 236
SWIDTH 287 0
DWIDTH 7 0
BBX 6 20 -1 0
BITMAP
5B5000
28DD61
0004AA
000000
0004F3
0004F3
0004F3
0004F3
0004F3
0004F3
0004F3
0004F3
0004F3
0004F3
0004F3
0004F3
0004F3
0004F3
0004F3
0004F3
ENDCHAR
STARTCHAR iacute
ENCODING 237
SWIDTH 287 0
DWIDTH 7 0
BBX 6 20 2 0
BITMAP
0005C4
17DD72
B94000
000000
4F3000
4F3000
4F3000
4F3000
4F3000
4F3000
4F3000
4F3000
4F3000
4F3000
4F3000
4F3000
4F3000
4F3000
4F3000
4F3000
ENDCHAR
STARTCHAR icircumflex
ENCODING 238
SWIDTH 287 0
DWIDTH 7 0
BBX 9 20 -1 0
BITMAP
0018D81000
29E94AE810
B8100028B0
0000000000
0004F30000
0004F30000
0004F30000
0004F30000
0004F30000
0004F30000
0004F30000
0004F30000
0004F30000
0004F30000
0004F30000
0004F30000
0004F30000
0004F30000
0004F30000
0004F30000
ENDCHAR
STARTCHAR idieresis
ENCODING 239
SWIDTH 287 0
DWIDTH 7 0
BBX 7 19 0 0
BITMAP
BF001FA0
BF001FA0
00000000
004F3000
004F3000
004F3000
004F3000
004F3000
004F3000
004F3000
004F3000
004F3000
004F3000
004F3000
004F3000
004F3000
004F3000
004F3000
004F3000
ENDCHAR
STARTCHAR eth
ENCODING 240
SWIDTH 910 0
DWIDTH 22 0
BBX 21 16 0 0
BITMAP
004FFFFFFFEECA84000000
004F3000001136AED50000
004F3000000000019F7000
004F30000000000008F300
004F30000000000001DA00
004F300000000000009F00
004F300000000000005F30
AFFFFFFFFFC00000004F40
004F300000000000004F40
004F300000000000005F30
004F300000000000008F00
004F30000000000000DA00
004F30000000000007F300
004F3000000000006F7000
004F30000001248DD50000
004FFFFFFFEEDB83000000
ENDCHAR
STARTCHAR ntilde
ENCODING 241
SWIDTH 933 0
DWIDTH 22 0
BBX 18 20 2 0
BITMAP
000003DE6001F10000
00000C62CA26C00000
00001F1007ED300000
000000000000000000
4F300016ADEFEB7100
4F303AEA521024AE30
4F4AE71000000008E1
4FF8100000000001E7
4F50000000000000CA
4F30000000000000BB
4F30000000000000BC
4F30000000000000BC
4F30000000000000BC
4F30000000000000BC
4F30000000000000BC
4F30000000000000BC
4F30000000000000BC
4F30000000000000BC
4F30000000000000BC
4F30000000000000BC
ENDCHAR
STARTCHAR ograve
ENCODING 242
SWIDTH 983 0
DWIDTH 24 0
BBX 21 20 1 0
BITMAP
0000001C71000000000000
00000016BE920000000000
00000000028D2000000000
0000000000000000000000
00000169CDFEEC95000000
00018EA63101147CE60000
003EB200000000004DA000
02EA00000000000002E900
0AE1000000000000005F40
1F80000000000000000D90
4F40000000000000000AD0
6F200000000000000008F0
6F200000000000000008F0
4F40000000000000000AD0
1F80000000000000000D90
0AD1000000000000005F40
01EA00000000000002E900
003EB200000000004DA000
00029EA53101147CE60000
0000016ADEFFEC95000000
ENDCHAR
STARTCHAR oacute
ENCODING 243
SWIDTH 983 0
DWIDTH 24 0
BBX 21 20 1 0
BITMAP
0000000000003990000000
00000000004BEA40000000
0000000006B61000000000
0000000000000000000000
00000169CDFEEC95000000
00018EA63101147CE60000
003EB200000000004DA000
02EA00000000000002E900
0AE1000000000000005F40
1F80000000000000000D90
4F40000000000000000AD0
6F200000000000000008F0
6F200000000000000008F0
4F40000000000000000AD0
1F80000000000000000D90
0AD1000000000000005F40
01EA00000000000002E900
003EB200000000004DA000
00029EA53101147CE60000
0000016ADEFFEC95000000
ENDCHAR
STARTCHAR ocircumflex
ENCODING 244
SWIDTH 983 0
DWIDTH 24 0
BBX 21 20 1 0
BITMAP
0000000005CA3000000000
00000006DC57DB40000000
0000007A300005C2000000
0000000000000000000000
00000169CDFEEC95000000
00018EA63101147CE60000
003EB200000000004DA000
02EA00000000000002E900
0AE1000000000000005F40
1F80000000000000000D90
4F40000000000000000AD0
6F200000000000000008F0
6F200000000000000008F0
4F40000000000000000AD0
1F80000000000000000D90
0AD1000000000000005F40
01EA00000000000002E900
003EB200000000004DA000
00029EA53101147CE60000
0000016ADEFFEC95000000
ENDCHAR
STARTCHAR otilde
ENCODING 245
SWIDTH 983 0
DWIDTH 24 0
BBX 21 20 1 0
BITMAP
00000005ED4003E0000000
0000000E43D918A0000000
0000003D0018EC20000000
0000000000000000000000
00000169CDFEEC95000000
00018EA63101147CE60000
003EB200000000004DA000
02EA00000000000002E900
0AE1000000000000005F40
1F80000000000000000D90
4F40000000000000000AD0
6F200000000000000008F0
6F200000000000000008F0
4F40000000000000000AD0
1F80000000000000000D90
0AD1000000000000005F40
01EA00000000000002E900
003EB200000000004DA000
00029EA53101147CE60000
0000016ADEFFEC95000000
ENDCHAR
STARTCHAR odieresis
ENCODING 246
SWIDTH 983 0
DWIDTH 24 0
BBX 21 19 1 0
BITMAP
00000006F500AF10000000
00000006F500AF10000000
0000000000000000000000
00000169CDFEEC95000000
00018EA63101147CE60000
003EB200000000004DA000
02EA00000000000002E900
0AE1000000000000005F40
1F80000000000000000D90
4F40000000000000000AD0
6F200000000000000008F0
6F200000000000000008F0
4F40000000000000000AD0
1F80000000000000000D90
0AD1000000000000005F40
01EA00000000000002E900
003EB200000000004DA000
00029EA53101147CE60000
0000016ADEFFEC95000000
ENDCHAR
STARTCHAR divide
ENCODING 247
SWIDTH 634 0
DWIDTH 15 0
BBX 12 9 2 3
BITMAP
00002F600000
00002F600000
000000000000
000000000000
FFFFFFFFFFF3
000000000000
000000000000
00002F600000
00002F600000
ENDCHAR
STARTCHAR oslash
ENCODING 248
SWIDTH 983 0
DWIDTH 24 0
BBX 21 20 1 -2
BITMAP
00000000000000001D8000
00000000000000009C0000
00000169CDFEDC87F30000
00018EA6310114AFE50000
003EB200000001D85DA000
02EA000000000AC002E900
0AE1000000006E20005F40
1F8000000002E600000DA0
4F400000000CA000000AD0
6F200000008D10000008F0
6F20000004F400000008F0
4F4000001E800000000AD0
1F800000BC000000000DA0
09D00007E2000000005F40
02EA003F5000000002EA00
003EB3D9000000004DA100
0001AFF63101147CE60000
00007E6ACEFFEC95000000
0003F50000000000000000
000CA00000000000000000
ENDCHAR
STARTCHAR ugrave
ENCODING 249
SWIDTH 931 0
DWIDTH 22 0
BBX 18 20 2 0
BITMAP
00000A930000000000
000004AEB400000000
000000016B60000000
000000000000000000
5F20000000000000D9
5F20000000000000D9
5F20000000000000D9
5F20000000000000D9
5F20000000000000D9
5F20000000000000D9
5F20000000000000D9
5F20000000000000D9
5F20000000000000D9
5F20000000000000D9
5F20000000000000D9
4F30000000000001E9
1F6000000000005DF9
08D1000000004BC4D9
00AD6210148DC500D9
0004ADFFEB730000D9
ENDCHAR
STARTCHAR uacute
ENCODING 250
SWIDTH 931 0
DWIDTH 22 0
BBX 18 20 2 0
BITMAP
000000000017C10000
0000000029EB610000
00000002D720000000
000000000000000000
5F20000000000000D9
5F20000000000000D9
5F20000000000000D9
5F20000000000000D9
5F20000000000000D9
5F20000000000000D9
5F20000000000000D9
5F20000000000000D9
5F20000000000000D9
5F20000000000000D9
5F20000000000000D9
4F30000000000001E9
1F6000000000005DF9
08D1000000004BC4D9
00AD6210148DC500D9
0004ADFFEB730000D9
ENDCHAR
STARTCHAR ucircumflex
ENCODING 251
SWIDTH 931 0
DWIDTH 22 0
BBX 18 20 2 0
BITMAP
00000003AC50000000
000004BD75CD600000
00002C500003A70000
000000000000000000
5F20000000000000D9
5F20000000000000D9
5F20000000000000D9
5F20000000000000D9
5F20000000000000D9
5F20000000000000D9
5F20000000000000D9
5F20000000000000D9
5F20000000000000D9
5F20000000000000D9
5F20000000000000D9
4F30000000000001E9
1F6000000000005DF9
08D1000000004BC4D9
00AD6210148DC500D9
0004ADFFEB730000D9
ENDCHAR
STARTCHAR udieresis
ENCODING 252
SWIDTH 931 0
DWIDTH 22 0
BBX 18 19 2 0
BITMAP
000001FA005F500000
000001FA005F500000
000000000000000000
5F20000000000000D9
5F20000000000000D9
5F20000000000000D9
5F20000000000000D9
5F20000000000000D9
5F20000000000000D9
5F20000000000000D9
5F20000000000000D9
5F20000000000000D9
5F20000000000000D9
5F20000000000000D9
4F30000000000001E9
1F6000000000005DF9
08D1000000004BC4D9
00AD6210148DC500D9
0004ADFFEB730000D9
ENDCHAR
STARTCHAR yacute
ENCODING 253
SWIDTH 911 0
DWIDTH 22 0
BBX 18 20 2 0
BITMAP
00000000004A700000
000000006CE8300000
00000009A500000000
000000000000000000
DA00000000000005F2
DA00000000000005F2
DA00000000000005F2
DA00000000000005F2
CA00000000000005F2
BC00000000000008F2
7F1000000000004EF2
2E700000000004C6F2
07F4000000006C25F2
006FA520126D9105F2
00028CEFEC820006F1
000000000000000BE0
000000000000005F70
A5000000000018FA00
3BD852101259EE7000
0027BDEFEDB9500000
ENDCHAR
STARTCHAR thorn
ENCODING 254
SWIDTH 787 0
DWIDTH 19 0
BBX 16 16 2 0
BITMAP
4F30000000000000
4F30000000000000
4F30000000000000
4FFFFFFFFEDA6100
4F3000000136DD30
4F30000000001CD0
4F300000000004F4
4F300000000002F6
4F300000000002F6
4F300000000004F4
4F30000000000CD0
4F3000000025DD30
4FFFFFFFFEDB6100
4F30000000000000
4F30000000000000
4F30000000000000
ENDCHAR
STARTCHAR ydieresis
ENCODING 255
SWIDTH 911 0
DWIDTH 22 0
BBX 18 19 2 0
BITMAP
000009F200DD000000
000009F200DD000000
000000000000000000
DA00000000000005F2
DA00000000000005F2
DA00000000000005F2
DA00000000000005F2
CA00000000000005F2
BC00000000000008F2
7F1000000000004EF2
2E700000000004C6F2
07F4000000006C25F2
006FA520126D9105F2
00028CEFEC820006F1
000000000000000BE0
000000000000005F70
A5000000000018FA00
3BD852101259EE7000
0027BDEFEDB9500000
ENDCHAR
STARTCHAR Amacron
ENCODING 256
SWIDTH 812 0
DWIDTH 20 0
BBX 19 19 0 0
BITMAP
0000007FFFFFF0000000
00000000000000000000
00000000000000000000
000000005FD000000000
00000000D9E600000000
00000006E17E10000000
0000001E700D70000000
0000007E1006E1000000
000001E60000D8000000
000008D000005E100000
00001E5000000C900000
00009C00000004F20000
0002F400000000BA0000
0009FFFFFFFFFFFF3000
002E100000000008A000
00AA000000000002F300
03F3000000000000AB00
0BB00000000000003F40
4F500000000000000CC0
ENDCHAR
STARTCHAR amacron
ENCODING 257
SWIDTH 888 0
DWIDTH 21 0
BBX 18 19 1 0
BITMAP
000000AFFFFFC00000
000000000000000000
000000000000000000
000016ADEFEDB72000
0039C842101359EA10
00B400000000002CB0
0000000000000001E5
0000000000000000BA
0000000000000000BB
00000001468ABCDEFB
000059DFDA864321BB
006EE84100000000BB
09F7000000000000BB
4F60000000000000BB
7F10000000000000BB
6F20000000000000BB
2EA0000000000039FB
04ED631012369DB5BB
0017BDFFEDB85100BB
ENDCHAR
STARTCHAR Abreve
ENCODING 258
SWIDTH 812 0
DWIDTH 20 0
BBX 19 20 0 0
BITMAP
000002F40000BA000000
0000008E5129E2000000
00000006DFEA20000000
00000000000000000000
000000005FD000000000
00000000D9E600000000
00000006E17E10000000
0000001E700D70000000
0000007E1006E1000000
000001E60000D8000000
000008D000005E100000
00001E5000000C900000
00009C00000004F20000
0002F400000000BA0000
0009FFFFFFFFFFFF3000
002E100000000008A000
00AA000000000002F300
03F3000000000000AB00
0BB00000000000003F40
4F500000000000000CC0
ENDCHAR
STARTCHAR abreve
ENCODING 259
SWIDTH 888 0
DWIDTH 21 0
BBX 18 20 1 0
BITMAP
000005F20001E60000
000000BC313BC10000
00000018DFE9100000
000000000000000000
000016ADEFEDB72000
0039C842101359EA10
00B400000000002CB0
0000000000000001E5
0000000000000000BA
0000000000000000BB
00000001468ABCDEFB
000059DFDA864321BB
006EE84100000000BB
09F7000000000000BB
4F60000000000000BB
7F10000000000000BB
6F20000000000000BB
2EA0000000000039FB
04ED631012369DB5BB
0017BDFFEDB85100BB
ENDCHAR
STARTCHAR Aogonek
ENCODING 260
SWIDTH 812 0
DWIDTH 20 0
BBX 21 20 0 -4
BITMAP
000000005FD00000000000
00000000DCF60000000000
00000006F39E1000000000
0000001E902E7000000000
0000007E2008E100000000
000001E80001E800000000
000008E100006E10000000
00001E6000000D90000000
00009D00000005F2000000
0002F400000000BA000000
0009FFFFFFFFFFFF300000
002E100000000008A00000
00AA000000000002F30000
03F3000000000000AB0000
0BB00000000000003F4000
4F500000000000000CC000
00000000000000006C4000
0000000000000004E10000
0000000000000007E20000
0000000000000001AEFF90
ENDCHAR
STARTCHAR aogonek
ENCODING 261
SWIDTH 888 0
DWIDTH 21 0
BBX 20 20 1 -4
BITMAP
000016ADEFEDB7200000
0039C842101359EA1000
00B400000000002CB000
0000000000000001E500
0000000000000000BA00
0000000000000000BB00
00000001468ABCDEFB00
000059DFDA864321BB00
006EE84100000000BB00
09F7000000000000BB00
4F60000000000000BB00
7F10000000000000BB00
6F20000000000002DB00
2EA000000000028EFB00
04ED63101248CFB5BB00
0017BDFFEDB85100BB00
0000000000000008B200
000000000000007D0000
000000000000009C2000
000000000000002BEFF7
ENDCHAR
STARTCHAR Cacute
ENCODING 262
SWIDTH 869 0
DWIDTH 21 0
BBX 19 20 1 0
BITMAP
0000000000003A800000
00000000005CE9300000
0000000008B500000000
00000000000000000000
00000159CDFEDB830000
00017EB63110237BC500
002DB200000000002930
01DA0000000000000000
09E10000000000000000
1F800000000000000000
4F400000000000000000
6F200000000000000000
6F200000000000000000
4F400000000000000000
1F800000000000000000
09E10000000000000000
01DA0000000000000000
002DB200000000002930
00018EB63100137BC500
00000159CEFEDB830000
ENDCHAR
STARTCHAR cacute
ENCODING 263
SWIDTH 869 0
DWIDTH 21 0
BBX 19 20 1 0
BITMAP
0000000000003A800000
00000000005CE9300000
0000000008B500000000
00000000000000000000
00000159CDFEDB830000
00017EB63110237BC500
002DB200000000002930
01DA0000000000000000
09E10000000000000000
1F800000000000000000
4F400000000000000000
6F200000000000000000
6F200000000000000000
4F400000000000000000
1F800000000000000000
09E10000000000000000
01DA0000000000000000
002DB200000000002930
00018EB63100137BC500
00000159CEFEDB830000
ENDCHAR
STARTCHAR Ccircumflex
ENCODING 264
SWIDTH 869 0
DWIDTH 21 0
BBX 19 20 1 0
BITMAP
0000000016D920000000
00000017EB58EA300000
00000099200016C10000
00000000000000000000
00000159CDFEDB830000
00017EB63110237BC500
002DB200000000002930
01DA0000000000000000
09E10000000000000000
1F800000000000000000
4F400000000000000000
6F200000000000000000
6F200000000000000000
4F400000000000000000
1F800000000000000000
09E10000000000000000
01DA0000000000000000
002DB200000000002930
00018EB63100137BC500
00000159CEFEDB830000
ENDCHAR
STARTCHAR ccircumflex
ENCODING 265
SWIDTH 869 0
DWIDTH 21 0
BBX 19 20 1 0
BITMAP
0000000006D920000000
00000017EB58EA300000
00000089300016C10000
00000000000000000000
00000159CDFEDB830000
00017EB63110237BC500
002DB200000000002930
01DA0000000000000000
09E10000000000000000
1F800000000000000000
4F400000000000000000
6F200000000000000000
6F200000000000000000
4F400000000000000000
1F800000000000000000
09E10000000000000000
01DA0000000000000000
002DB200000000002930
00018EB63100137BC500
00000159CEFEDB830000
ENDCHAR
STARTCHAR Cdotaccent
ENCODING 266
SWIDTH 869 0
DWIDTH 21 0
BBX 19 19 1 0
BITMAP
0000000003F900000000
0000000003F900000000
00000000000000000000
00000159CDFEDB830000
00017EB63110237BC500
002DB200000000002930
01DA0000000000000000
09E10000000000000000
1F800000000000000000
4F400000000000000000
6F200000000000000000
6F200000000000000000
4F400000000000000000
1F800000000000000000
09E10000000000000000
01DA0000000000000000
002DB200000000002930
00018EB63100137BC500
00000159CEFEDB830000
ENDCHAR
STARTCHAR cdotaccent
ENCODING 267
SWIDTH 869 0
DWIDTH 21 0
BBX 19 19 1 0
BITMAP
0000000003F900000000
0000000003F900000000
00000000000000000000
00000159CDFEDB830000
00017EB63110237BC500
002DB200000000002930
01DA0000000000000000
09E10000000000000000
1F800000000000000000
4F400000000000000000
6F200000000000000000
6F200000000000000000
4F400000000000000000
1F800000000000000000
09E10000000000000000
01DA0000000000000000
002DB200000000002930
00018EB63100137BC500
00000159CEFEDB830000
ENDCHAR
STARTCHAR Ccaron
ENCODING 268
SWIDTH 869 0
DWIDTH 21 0
BBX 19 20 1 0
BITMAP
00000099200016C10000
00000017EB48EA300000
0000000016D920000000
00000000000000000000
00000159CDFEDB830000
00017EB63110237BC500
002DB200000000002930
01DA0000000000000000
09E10000000000000000
1F800000000000000000
4F400000000000000000
6F200000000000000000
6F200000000000000000
4F400000000000000000
1F800000000000000000
09E10000000000000000
01DA0000000000000000
002DB200000000002930
00018EB63100137BC500
00000159CEFEDB830000
ENDCHAR
STARTCHAR ccaron
ENCODING 269
SWIDTH 869 0
DWIDTH 21 0
BBX 19 20 1 0
BITMAP
00000089200016C10000
00000017EB48EA300000
0000000006D920000000
00000000000000000000
00000159CDFEDB830000
00017EB63110237BC500
002DB200000000002930
01DA0000000000000000
09E10000000000000000
1F800000000000000000
4F400000000000000000
6F200000000000000000
6F200000000000000000
4F400000000000000000
1F800000000000000000
09E10000000000000000
01DA0000000000000000
002DB200000000002930
00018EB63100137BC500
00000159CEFEDB830000
ENDCHAR
STARTCHAR Dcaron
ENCODING 270
SWIDTH 910 0
DWIDTH 22 0
BBX 19 20 2 0
BITMAP
002C600003A700000000
0004BD75BD6100000000
000003AD600000000000
00000000000000000000
4FFFFFFFFFEC95100000
4F30000000137CD50000
4F3000000000006F6000
4F30000000000006F300
4F30000000000000DA00
4F300000000000008E00
4F300000000000005F20
4F300000000000004F40
4F300000000000004F40
4F300000000000005F30
4F300000000000008F00
4F30000000000000DA00
4F30000000000007F300
4F3000000000006F7000
4F30000000136CD50000
4FFFFFFFFFEC95000000
ENDCHAR
STARTCHAR dcaron
ENCODING 271
SWIDTH 910 0
DWIDTH 22 0
BBX 19 20 2 0
BITMAP
002C6000039800000000
0003BE74BD7100000000
000003AD600000000000
00000000000000000000
4FFFFFFFFFEC95100000
4F30000000137CD50000
4F3000000000006F6000
4F30000000000006F300
4F30000000000000DA00
4F300000000000008E00
4F300000000000005F20
4F300000000000004F40
4F300000000000004F40
4F300000000000005F30
4F300000000000008F00
4F30000000000000DA00
4F30000000000007F300
4F3000000000006F7000
4F30000000136CD50000
4FFFFFFFFFEC95000000
ENDCHAR
STARTCHAR Dcroat
ENCODING 272
SWIDTH 910 0
DWIDTH 22 0
BBX 21 16 0 0
BITMAP
004FFFFFFFEECA84000000
004F3000001136AED50000
004F3000000000019F7000
004F30000000000008F300
004F30000000000001DA00
004F300000000000009F00
004F300000000000005F30
AFFFFFFFFFC00000004F40
004F300000000000004F40
004F300000000000005F30
004F300000000000008F00
004F30000000000000DA00
004F30000000000007F300
004F3000000000006F7000
004F30000001248DD50000
004FFFFFFFEEDB83000000
ENDCHAR
STARTCHAR dcroat
ENCODING 273
SWIDTH 910 0
DWIDTH 22 0
BBX 21 16 0 0
BITMAP
004FFFFFFFEECA84000000
004F3000001136AED50000
004F3000000000019F7000
004F30000000000008F300
004F30000000000001DA00
004F300000000000009F00
004F300000000000005F30
AFFFFFFFFFC00000004F40
004F300000000000004F40
004F300000000000005F30
004F300000000000008F00
004F30000000000000DA00
004F30000000000007F300
004F3000000000006F7000
004F30000001248DD50000
004FFFFFFFEEDB83000000
ENDCHAR
STARTCHAR Emacron
ENCODING 274
SWIDTH 754 0
DWIDTH 18 0
BBX 15 19 2 0
BITMAP
0000EFFFFF800000
0000000000000000
0000000000000000
4FFFFFFFFFFFFF20
4F40000000000000
4F40000000000000
4F40000000000000
4F40000000000000
4F40000000000000
4F40000000000000
4FFFFFFFFFFFF800
4F40000000000000
4F40000000000000
4F40000000000000
4F40000000000000
4F40000000000000
4F40000000000000
4F40000000000000
4FFFFFFFFFFFFF40
ENDCHAR
STARTCHAR emacron
ENCODING 275
SWIDTH 910 0
DWIDTH 22 0
BBX 20 19 1 0
BITMAP
0000004FFFFFF3000000
00000000000000000000
00000000000000000000
0000027BDEFEC9400000
00019E95210148EC3000
002DB20000000008F400
01DA0000000000008E20
08E10000000000000D90
0E7000000000000007E0
4F3000000000000004F2
6FFFFFFFFFFFFFFFFFF4
6F300000000000000000
4F500000000000000000
1EA00000000000000000
09F30000000000000000
01DD2000000000000000
002DD500000000003A00
00018ED74210137CB300
0000016ACEFFEB720000
ENDCHAR
STARTCHAR Ebreve
ENCODING 276
SWIDTH 754 0
DWIDTH 18 0
BBX 15 20 2 0
BITMAP
0009C00003F20000
0002E9214D900000
00002AEFD6000000
0000000000000000
4FFFFFFFFFFFFF20
4F40000000000000
4F40000000000000
4F40000000000000
4F40000000000000
4F40000000000000
4F40000000000000
4FFFFFFFFFFFF800
4F40000000000000
4F40000000000000
4F40000000000000
4F40000000000000
4F40000000000000
4F40000000000000
4F40000000000000
4FFFFFFFFFFFFF40
ENDCHAR
STARTCHAR ebreve
ENCODING 277
SWIDTH 910 0
DWIDTH 22 0
BBX 20 20 1 0
BITMAP
000000E700008C000000
0000005F6117F4000000
00000004CFEB40000000
00000000000000000000
0000027BDEFEC9400000
00019E95210148EC3000
002DB20000000008F400
01DA0000000000008E20
08E10000000000000D90
0E7000000000000007E0
4F3000000000000004F2
6FFFFFFFFFFFFFFFFFF4
6F300000000000000000
4F500000000000000000
1EA00000000000000000
09F30000000000000000
01DD2000000000000000
002DD500000000003A00
00018ED74210137CB300
0000016ACEFFEB720000
ENDCHAR
STARTCHAR Edotaccent
ENCODING 278
SWIDTH 754 0
DWIDTH 18 0
BBX 15 19 2 0
BITMAP
0000009F30000000
0000009F30000000
0000000000000000
4FFFFFFFFFFFFF20
4F40000000000000
4F40000000000000
4F40000000000000
4F40000000000000
4F40000000000000
4F40000000000000
4FFFFFFFFFFFF800
4F40000000000000
4F40000000000000
4F40000000000000
4F40000000000000
4F40000000000000
4F40000000000000
4F40000000000000
4FFFFFFFFFFFFF40
ENDCHAR
STARTCHAR edotaccent
ENCODING 279
SWIDTH 910 0
DWIDTH 22 0
BBX 20 19 1 0
BITMAP
000000000ED000000000
000000000ED000000000
00000000000000000000
0000027BDEFEC9400000
00019E95210148EC3000
002DB20000000008F400
01DA0000000000008E20
08E10000000000000D90
0E7000000000000007E0
4F3000000000000004F2
6FFFFFFFFFFFFFFFFFF4
6F300000000000000000
4F500000000000000000
1EA00000000000000000
09F30000000000000000
01DD2000000000000000
002DD500000000003A00
00018ED74210137CB300
0000016ACEFFEB720000
ENDCHAR
STARTCHAR Eogonek
ENCODING 280
SWIDTH 754 0
DWIDTH 18 0
BBX 15 20 2 -4
BITMAP
4FFFFFFFFFFFFF20
4F40000000000000
4F40000000000000
4F40000000000000
4F40000000000000
4F40000000000000
4F40000000000000
4FFFFFFFFFFFF800
4F40000000000000
4F40000000000000
4F40000000000000
4F40000000000000
4F40000000000000
4F40000000000000
4F40000000000000
4FFFFFFFFFFFFF40
0000000001AC5200
0000000009C00000
000000000CB10000
0000000004CEFF40
ENDCHAR
STARTCHAR eogonek
ENCODING 281
SWIDTH 910 0
DWIDTH 22 0
BBX 20 20 1 -4
BITMAP
0000027BDEFEC9400000
00019E95210148EC3000
002DB20000000008F400
01DA0000000000008E20
08E10000000000000D90
0E7000000000000007E0
4F3000000000000004F2
6FFFFFFFFFFFFFFFFFF4
6F300000000000000000
4F500000000000000000
1EA00000000000000000
09F30000000000000000
01DD2000000000000000
002DD500000000003A00
00018ED74210137CE400
0000016ACEFEDB9E2000
00000000000000C70000
00000000000002F30000
00000000000001F81000
000000000000005DFFF0
ENDCHAR
STARTCHAR Ecaron
ENCODING 282
SWIDTH 754 0
DWIDTH 18 0
BBX 15 20 2 0
BITMAP
001C610002990000
0003AE84BE710000
0000029D61000000
0000000000000000
4FFFFFFFFFFFFF20
4F40000000000000
4F40000000000000
4F40000000000000
4F40000000000000
4F40000000000000
4F40000000000000
4FFFFFFFFFFFF800
4F40000000000000
4F40000000000000
4F40000000000000
4F40000000000000
4F40000000000000
4F40000000000000
4F40000000000000
4FFFFFFFFFFFFF40
ENDCHAR
STARTCHAR ecaron
ENCODING 283
SWIDTH 910 0
DWIDTH 22 0
BBX 20 20 1 0
BITMAP
000005B400004B400000
0000005CC66DC5000000
000000005CB400000000
00000000000000000000
0000027BDEFEC9400000
00019E95210148EC3000
002DB20000000008F400
01DA0000000000008E20
08E10000000000000D90
0E7000000000000007E0
4F3000000000000004F2
6FFFFFFFFFFFFFFFFFF4
6F300000000000000000
4F500000000000000000
1EA00000000000000000
09F30000000000000000
01DD2000000000000000
002DD500000000003A00
00018ED74210137CB300
0000016ACEFFEB720000
ENDCHAR
STARTCHAR Gcircumflex
ENCODING 284
SWIDTH 910 0
DWIDTH 22 0
BBX 19 20 1 0
BITMAP
0000000005CB30000000
00000006DC57DB400000
0000006A400005C30000
00000000000000000000
00000158CDEFEC940000
00017EC74210136AD710
002DC300000000001760
01DB1000000000000000
09E10000000000000000
1E800000000000000000
4F400000000000000000
6F200000000000000000
6F200000002FFFFFFFD0
4F4000000000000009D0
1E8000000000000009D0
09E200000000000009D0
01DC10000000000009D0
002DD4000000000009D0
00018EC7421012369EC0
00000159CEEFEDCA7300
ENDCHAR
STARTCHAR gcircumflex
ENCODING 285
SWIDTH 910 0
DWIDTH 22 0
BBX 19 20 1 0
BITMAP
0000000005CB30000000
00000006DC57DB400000
0000006A400005C30000
00000000000000000000
00000158CDEFEC940000
00017EC74210136AD710
002DC300000000001760
01DB1000000000000000
09E10000000000000000
1E800000000000000000
4F400000000000000000
6F200000000000000000
6F200000002FFFFFFFD0
4F4000000000000009D0
1E8000000000000009D0
09E200000000000009D0
01DC10000000000009D0
002DD4000000000009D0
00018EC7421012369EC0
00000159CEEFEDCA7300
ENDCHAR
STARTCHAR Gbreve
ENCODING 286
SWIDTH 910 0
DWIDTH 22 0
BBX 19 20 1 0
BITMAP
0000001E60000AB00000
00000007E5128F300000
000000005CFEB3000000
00000000000000000000
00000158CDEFEC940000
00017EC74210136AD710
002DC300000000001760
01DB1000000000000000
09E10000000000000000
1E800000000000000000
4F400000000000000000
6F200000000000000000
6F200000002FFFFFFFD0
4F4000000000000009D0
1E8000000000000009D0
09E200000000000009D0
01DC10000000000009D0
002DD4000000000009D0
00018EC7421012369EC0
00000159CEEFEDCA7300
ENDCHAR
STARTCHAR gbreve
ENCODING 287
SWIDTH 910 0
DWIDTH 22 0
BBX 19 20 1 0
BITMAP
0000001E60000AB00000
00000007E5128F300000
000000005CFEB3000000
00000000000000000000
00000158CDEFEC940000
00017EC74210136AD710
002DC300000000001760
01DB1000000000000000
09E10000000000000000
1E800000000000000000
4F400000000000000000
6F200000000000000000
6F200000002FFFFFFFD0
4F4000000000000009D0
1E8000000000000009D0
09E200000000000009D0
01DC10000000000009D0
002DD4000000000009D0
00018EC7421012369EC0
00000159CEEFEDCA7300
ENDCHAR
STARTCHAR Gdotaccent
ENCODING 288
SWIDTH 910 0
DWIDTH 22 0
BBX 19 19 1 0
BITMAP
0000000000FC00000000
0000000000FC00000000
00000000000000000000
00000158CDEFEC940000
00017EC74210136AD710
002DC300000000001760
01DB1000000000000000
09E10000000000000000
1E800000000000000000
4F400000000000000000
6F200000000000000000
6F200000002FFFFFFFD0
4F4000000000000009D0
1E8000000000000009D0
09E200000000000009D0
01DC10000000000009D0
002DD4000000000009D0
00018EC7421012369EC0
00000159CEEFEDCA7300
ENDCHAR
STARTCHAR gdotaccent
ENCODING 289
SWIDTH 910 0
DWIDTH 22 0
BBX 19 19 1 0
BITMAP
0000000000FC00000000
0000000000FC00000000
00000000000000000000
00000158CDEFEC940000
00017EC74210136AD710
002DC300000000001760
01DB1000000000000000
09E10000000000000000
1E800000000000000000
4F400000000000000000
6F200000000000000000
6F200000002FFFFFFFD0
4F4000000000000009D0
1E8000000000000009D0
09E200000000000009D0
01DC10000000000009D0
002DD4000000000009D0
00018EC7421012369EC0
00000159CEEFEDCA7300
ENDCHAR
STARTCHAR Gcommaaccent
ENCODING 290
SWIDTH 910 0
DWIDTH 22 0
BBX 19 21 1 -5
BITMAP
00000158CDEFEC940000
00017EC74210136AD710
002DC300000000001760
01DB1000000000000000
09E10000000000000000
1E800000000000000000
4F400000000000000000
6F200000000000000000
6F200000002FFFFFFFD0
4F4000000000000009D0
1E8000000000000009D0
09E200000000000009D0
01DC10000000000009D0
002DD4000000000009D0
00018EC7421012369EC0
00000159CEEFEDCA7300
00000000000000000000
00000000000000000000
00000000009F10000000
0000000000BA00000000
0000000000D600000000
ENDCHAR
STARTCHAR gcommaaccent
ENCODING 291
SWIDTH 910 0
DWIDTH 22 0
BBX 19 21 1 -5
BITMAP
00000158CDEFEC940000
00017EC74210136AD710
002DC300000000001760
01DB1000000000000000
09E10000000000000000
1E800000000000000000
4F400000000000000000
6F200000000000000000
6F200000002FFFFFFFD0
4F4000000000000009D0
1E8000000000000009D0
09E200000000000009D0
01DC10000000000009D0
002DD4000000000009D0
00018EC7421012369EC0
00000159CEEFEDCA7300
00000000000000000000
00000000000000000000
00000000009F10000000
0000000000BA00000000
0000000000D600000000
ENDCHAR
STARTCHAR Hcircumflex
ENCODING 292
SWIDTH 949 0
DWIDTH 23 0
BBX 19 20 2 0
BITMAP
000000028D7100000000
0000029E94AE81000000
00000C7100028A000000
00000000000000000000
4F300000000000006F10
4F300000000000006F10
4F300000000000006F10
4F300000000000006F10
4F300000000000006F10
4F300000000000006F10
4F300000000000006F10
4FFFFFFFFFFFFFFFFF10
4F300000000000006F10
4F300000000000006F10
4F300000000000006F10
4F300000000000006F10
4F300000000000006F10
4F300000000000006F10
4F300000000000006F10
4F300000000000006F10
ENDCHAR
STARTCHAR hcircumflex
ENCODING 293
SWIDTH 949 0
DWIDTH 23 0
BBX 19 20 2 0
BITMAP
000000028D7100000000
0000029E94AE81000000
00000C7100028A000000
00000000000000000000
4F300000000000006F10
4F300000000000006F10
4F300000000000006F10
4F300000000000006F10
4F300000000000006F10
4F300000000000006F10
4F300000000000006F10
4FFFFFFFFFFFFFFFFF10
4F300000000000006F10
4F300000000000006F10
4F300000000000006F10
4F300000000000006F10
4F300000000000006F10
4F300000000000006F10
4F300000000000006F10
4F300000000000006F10
ENDCHAR
STARTCHAR Hbar
ENCODING 294
SWIDTH 949 0
DWIDTH 23 0
BBX 23 16 0 0
BITMAP
004F300000000000006F1000
004F300000000000006F1000
004F300000000000006F1000
5FFFFFFFFFFFFFFFFFFFFF20
004F300000000000006F1000
004F300000000000006F1000
004F300000000000006F1000
004FFFFFFFFFFFFFFFFF1000
004F300000000000006F1000
004F300000000000006F1000
004F300000000000006F1000
004F300000000000006F1000
004F300000000000006F1000
004F300000000000006F1000
004F300000000000006F1000
004F300000000000006F1000
ENDCHAR
STARTCHAR hbar
ENCODING 295
SWIDTH 949 0
DWIDTH 23 0
BBX 23 16 0 0
BITMAP
004F300000000000006F1000
004F300000000000006F1000
004F300000000000006F1000
5FFFFFFFFFFFFFFFFFFFFF20
004F300000000000006F1000
004F300000000000006F1000
004F300000000000006F1000
004FFFFFFFFFFFFFFFFF1000
004F300000000000006F1000
004F300000000000006F1000
004F300000000000006F1000
004F300000000000006F1000
004F300000000000006F1000
004F300000000000006F1000
004F300000000000006F1000
004F300000000000006F1000
ENDCHAR
STARTCHAR Itilde
ENCODING 296
SWIDTH 287 0
DWIDTH 7 0
BBX 9 20 -1 0
BITMAP
09EA100980
5C17E51D40
97003BE900
0000000000
0004F30000
0004F30000
0004F30000
0004F30000
0004F30000
0004F30000
0004F30000
0004F30000
0004F30000
0004F30000
0004F30000
0004F30000
0004F30000
0004F30000
0004F30000
0004F30000
ENDCHAR
STARTCHAR itilde
ENCODING 297
SWIDTH 287 0
DWIDTH 7 0
BBX 9 20 -1 0
BITMAP
09EA200890
5D16E61D50
98002BF900
0000000000
0004F30000
0004F30000
0004F30000
0004F30000
0004F30000
0004F30000
0004F30000
0004F30000
0004F30000
0004F30000
0004F30000
0004F30000
0004F30000
0004F30000
0004F30000
0004F30000
ENDCHAR
STARTCHAR Imacron
ENCODING 298
SWIDTH 287 0
DWIDTH 7 0
BBX 7 19 0 0
BITMAP
CFFFFFA0
00000000
00000000
004F3000
004F3000
004F3000
004F3000
004F3000
004F3000
004F3000
004F3000
004F3000
004F3000
004F3000
004F3000
004F3000
004F3000
004F3000
004F3000
ENDCHAR
STARTCHAR imacron
ENCODING 299
SWIDTH 287 0
DWIDTH 7 0
BBX 7 19 0 0
BITMAP
BFFFFFA0
00000000
00000000
004F3000
004F3000
004F3000
004F3000
004F3000
004F3000
004F3000
004F3000
004F3000
004F3000
004F3000
004F3000
004F3000
004F3000
004F3000
004F3000
ENDCHAR
STARTCHAR Ibreve
ENCODING 300
SWIDTH 287 0
DWIDTH 7 0
BBX 9 20 -1 0
BITMAP
6E10002F50
1DB313CB00
019EFD8100
0000000000
0004F30000
0004F30000
0004F30000
0004F30000
0004F30000
0004F30000
0004F30000
0004F30000
0004F30000
0004F30000
0004F30000
0004F30000
0004F30000
0004F30000
0004F30000
0004F30000
ENDCHAR
STARTCHAR ibreve
ENCODING 301
SWIDTH 287 0
DWIDTH 7 0
BBX 9 20 -1 0
BITMAP
6E10001E50
1CB313CB00
019EFD8100
0000000000
0004F30000
0004F30000
0004F30000
0004F30000
0004F30000
0004F30000
0004F30000
0004F30000
0004F30000
0004F30000
0004F30000
0004F30000
0004F30000
0004F30000
0004F30000
0004F30000
ENDCHAR
STARTCHAR Iogonek
ENCODING 302
SWIDTH 287 0
DWIDTH 7 0
BBX 6 20 0 -4
BITMAP
004F30
004F30
004F30
004F30
004F30
004F30
004F30
004F30
004F30
004F30
004F30
004F30
004F30
004F30
004F30
005F30
06C300
3F2000
6F3000
1AEFFB
ENDCHAR
STARTCHAR iogonek
ENCODING 303
SWIDTH 287 0
DWIDTH 7 0
BBX 6 20 0 -4
BITMAP
004F30
004F30
004F30
004F30
004F30
004F30
004F30
004F30
004F30
004F30
004F30
004F30
004F30
004F30
004F30
005F30
06C300
3F2000
6F3000
1AEFFB
ENDCHAR
STARTCHAR Idotaccent
ENCODING 304
SWIDTH 287 0
DWIDTH 7 0
BBX 3 19 2 0
BITMAP
7F50
7F50
0000
4F30
4F30
4F30
4F30
4F30
4F30
4F30
4F30
4F30
4F30
4F30
4F30
4F30
4F30
4F30
4F30
ENDCHAR
STARTCHAR dotlessi
ENCODING 305
SWIDTH 287 0
DWIDTH 7 0
BBX 3 16 2 0
BITMAP
4F30
4F30
4F30
4F30
4F30
4F30
4F30
4F30
4F30
4F30
4F30
4F30
4F30
4F30
4F30
4F30
ENDCHAR
STARTCHAR IJ
ENCODING 306
SWIDTH 877 0
DWIDTH 21 0
BBX 17 16 2 0
BITMAP
4F3000000000000F70
4F3000000000000F70
4F3000000000000F70
4F3000000000000F70
4F3000000000000F70
4F3000000000000F70
4F3000000000000F70
4F3000000000000F70
4F3000000000000F70
4F3000000000000F70
4F3000000000000F70
4F3000000000001F50
4F3000000000005F20
4F300000000001DA00
4F302C7411026EB100
4F30038BEFFDA50000
ENDCHAR
STARTCHAR ij
ENCODING 307
SWIDTH 877 0
DWIDTH 21 0
BBX 17 16 2 0
BITMAP
4F3000000000000F70
4F3000000000000F70
4F3000000000000F70
4F3000000000000F70
4F3000000000000F70
4F3000000000000F70
4F3000000000000F70
4F3000000000000F70
4F3000000000000F70
4F3000000000000F70
4F3000000000000F70
4F3000000000001F50
4F3000000000005F20
4F300000000001DA00
4F302C7411026EB100
4F30038BEFFDA50000
ENDCHAR
STARTCHAR Jcircumflex
ENCODING 308
SWIDTH 590 0
DWIDTH 14 0
BBX 16 20 0 0
BITMAP
0000000005CA3000
00000006DC57DB40
0000007A300006C2
0000000000000000
0000000000E80000
0000000000E80000
0000000000E80000
0000000000E80000
0000000000E80000
0000000000E80000
0000000000E80000
0000000000E80000
0000000000E80000
0000000000E80000
0000000000E80000
0000000000F70000
0000000003F40000
000000001CC00000
C7421016DC200000
37BDEFEB60000000
ENDCHAR
STARTCHAR jcircumflex
ENCODING 309
SWIDTH 590 0
DWIDTH 14 0
BBX 16 20 0 0
BITMAP
0000000005CA3000
00000006DC57DB40
0000007A300006C2
0000000000000000
0000000000E80000
0000000000E80000
0000000000E80000
0000000000E80000
0000000000E80000
0000000000E80000
0000000000E80000
0000000000E80000
0000000000E80000
0000000000E80000
0000000000E80000
0000000000F70000
0000000003F40000
000000001CC00000
C7421016DC200000
37BDEFEB60000000
ENDCHAR
STARTCHAR Kcommaaccent
ENCODING 310
SWIDTH 806 0
DWIDTH 19 0
BBX 17 21 2 -5
BITMAP
4F300000000019E700
4F3000000005DB2000
4F30000002AE600000
4F3000006EB2000000
4F30003CE500000000
4F3018FA1000000000
4F34DD500000000000
4FBFC1000000000000
4F5BF9100000000000
4F306ED40000000000
4F3002BF9100000000
4F300006ED40000000
4F3000002BF9100000
4F300000006ED40000
4F3000000002BF9100
4F300000000006ED40
000000000000000000
000000000000000000
0000001F8000000000
0000003F4000000000
0000005E0000000000
ENDCHAR
STARTCHAR kcommaaccent
ENCODING 311
SWIDTH 867 0
DWIDTH 21 0
BBX 18 21 2 -5
BITMAP
4F3000000000004F30
4F3000000000009E10
4F300000000002E800
4F30000000001CD100
4F3000000002CD2000
4F300000017EA10000
4F300236AEB4000000
4FFFFFFFE710000000
4F3001248CFA300000
4F300000003AF91000
4F30000000005EB100
4F300000000003EA00
4F3000000000005F50
4F3000000000000CC0
4F30000000000007F1
4F30000000000004F4
000000000000000000
000000000000000000
00000005F400000000
00000007E000000000
00000009A000000000
ENDCHAR
STARTCHAR kgreenlandic
ENCODING 312
SWIDTH 867 0
DWIDTH 21 0
BBX 18 16 2 0
BITMAP
4F3000000000004F30
4F3000000000009E10
4F300000000002E800
4F30000000001CD100
4F3000000002CD2000
4F300000017EA10000
4F300236AEB4000000
4FFFFFFFE710000000
4F3001248CFA300000
4F300000003AF91000
4F30000000005EB100
4F300000000003EA00
4F3000000000005F50
4F3000000000000CC0
4F30000000000007F1
4F30000000000004F4
ENDCHAR
STARTCHAR Lacute
ENCODING 313
SWIDTH 701 0
DWIDTH 17 0
BBX 14 20 2 0
BITMAP
0005C400000000
17DD7200000000
B9400000000000
00000000000000
4F300000000000
4F300000000000
4F300000000000
4F300000000000
4F300000000000
4F300000000000
4F300000000000
4F300000000000
4F300000000000
4F300000000000
4F300000000000
4F300000000000
4F300000000000
4F300000000000
4F300000000000
4FFFFFFFFFFFFE
ENDCHAR
STARTCHAR lacute
ENCODING 314
SWIDTH 709 0
DWIDTH 17 0
BBX 15 20 2 0
BITMAP
0005C40000000000
17DD720000000000
B940000000000000
0000000000000000
4F30000000000000
4F30000000000000
4F30000000000000
4F30000000000000
4F30000000000000
4F30000000000000
4F30000000000000
4F30000000000000
4F30000000000000
4F30000000000000
4F30000000000000
4F30000000000000
2F50000000000000
0CB0000000000000
03EB521000000000
0028CEFFFFFFFFC0
ENDCHAR
STARTCHAR Lcommaaccent
ENCODING 315
SWIDTH 701 0
DWIDTH 17 0
BBX 14 21 2 -5
BITMAP
4F300000000000
4F300000000000
4F300000000000
4F300000000000
4F300000000000
4F300000000000
4F300000000000
4F300000000000
4F300000000000
4F300000000000
4F300000000000
4F300000000000
4F300000000000
4F300000000000
4F300000000000
4FFFFFFFFFFFFE
00000000000000
00000000000000
0000004F500000
0000006F100000
0000009B000000
ENDCHAR
STARTCHAR lcommaaccent
ENCODING 316
SWIDTH 709 0
DWIDTH 17 0
BBX 15 21 2 -5
BITMAP
4F30000000000000
4F30000000000000
4F30000000000000
4F30000000000000
4F30000000000000
4F30000000000000
4F30000000000000
4F30000000000000
4F30000000000000
4F30000000000000
4F30000000000000
4F30000000000000
2F50000000000000
0CB0000000000000
03EB521000000000
0028CEFFFFFFFFC0
0000000000000000
0000000000000000
0000000BD0000000
0000000E80000000
0000001F30000000
ENDCHAR
STARTCHAR Lcaron
ENCODING 317
SWIDTH 701 0
DWIDTH 17 0
BBX 14 16 2 0
BITMAP
4F3000000EA000
4F3000002F5000
4F3000005F1000
4F3000008A0000
4F300000000000
4F300000000000
4F300000000000
4F300000000000
4F300000000000
4F300000000000
4F300000000000
4F300000000000
4F300000000000
4F300000000000
4F300000000000
4FFFFFFFFFFFFE
ENDCHAR
STARTCHAR lcaron
ENCODING 318
SWIDTH 709 0
DWIDTH 17 0
BBX 15 16 2 0
BITMAP
4F3000000EA00000
4F3000002F500000
4F3000005F100000
4F3000008B000000
4F30000000000000
4F30000000000000
4F30000000000000
4F30000000000000
4F30000000000000
4F30000000000000
4F30000000000000
4F30000000000000
2F50000000000000
0CB0000000000000
03EB521000000000
0028CEFFFFFFFFC0
ENDCHAR
STARTCHAR Ldot
ENCODING 319
SWIDTH 701 0
DWIDTH 17 0
BBX 14 16 2 0
BITMAP
4F300000000000
4F300000000000
4F300000000000
4F300000000000
4F300000000000
4F300000000000
4F3000003FC000
4F3000003FC000
4F3000003FC000
4F300000000000
4F300000000000
4F300000000000
4F300000000000
4F300000000000
4F300000000000
4FFFFFFFFFFFFE
ENDCHAR
STARTCHAR ldotaccent
ENCODING 320
SWIDTH 709 0
DWIDTH 17 0
BBX 15 16 2 0
BITMAP
4F30000000000000
4F30000000000000
4F30000000000000
4F30000000000000
4F30000000000000
4F30000000000000
4F3000000EF10000
4F3000000EF10000
4F3000000EF10000
4F30000000000000
4F30000000000000
4F30000000000000
2F50000000000000
0CB0000000000000
03EB521000000000
0028CEFFFFFFFFC0
ENDCHAR
STARTCHAR Lslash
ENCODING 321
SWIDTH 701 0
DWIDTH 17 0
BBX 16 16 0 0
BITMAP
004F300000000000
004F300000000000
004F300000000000
004F300000000000
004F300000000000
004F3017B0000000
004F37D810000000
005FE81000000000
17EF300000000000
A86F300000000000
004F300000000000
004F300000000000
004F300000000000
004F300000000000
004F300000000000
004FFFFFFFFFFFFE
ENDCHAR
STARTCHAR lslash
ENCODING 322
SWIDTH 709 0
DWIDTH 17 0
BBX 17 16 0 0
BITMAP
004F30000000000000
004F30000000000000
004F30000000000000
004F30000000000000
004F30000000000000
004F3017B000000000
004F37D81000000000
005FE8100000000000
17EF30000000000000
A86F30000000000000
004F30000000000000
004F30000000000000
002F60000000000000
000CC0000000000000
0003EC521000000000
000018BEFFFFFFFFC0
ENDCHAR
STARTCHAR Nacute
ENCODING 323
SWIDTH 936 0
DWIDTH 22 0
BBX 18 20 2 0
BITMAP
000000000017C10000
0000000028EC610000
00000001D820000000
000000000000000000
4FC1000000000000AC
4FEB100000000000AC
4F5DB00000000000AC
4F32EB0000000000AC
4F302EA000000000AC
4F3003EA00000000AC
4F30003EA0000000AC
4F300003E9000000AC
4F3000003E900000AC
4F30000003E80000AC
4F300000004E8000AC
4F3000000004F800AC
4F30000000004F70AC
4F300000000004F7AC
4F3000000000005FEC
4F30000000000005FC
ENDCHAR
STARTCHAR nacute
ENCODING 324
SWIDTH 933 0
DWIDTH 22 0
BBX 18 20 2 0
BITMAP
000000000028B00000
000000004AEA500000
00000004C610000000
000000000000000000
4F300016ADEFEB7100
4F303AEA521024AE30
4F4AE71000000008E1
4FF8100000000001E7
4F50000000000000CA
4F30000000000000BB
4F30000000000000BC
4F30000000000000BC
4F30000000000000BC
4F30000000000000BC
4F30000000000000BC
4F30000000000000BC
4F30000000000000BC
4F30000000000000BC
4F30000000000000BC
4F30000000000000BC
ENDCHAR
STARTCHAR Ncommaaccent
ENCODING 325
SWIDTH 936 0
DWIDTH 22 0
BBX 18 21 2 -5
BITMAP
4FC1000000000000AC
4FEB100000000000AC
4F5DB00000000000AC
4F32EB0000000000AC
4F302EA000000000AC
4F3003EA00000000AC
4F30003EA0000000AC
4F300003E9000000AC
4F3000003E900000AC
4F30000003E80000AC
4F300000004E8000AC
4F3000000004F800AC
4F30000000004F70AC
4F300000000004F7AC
4F3000000000005FEC
4F30000000000005FC
000000000000000000
000000000000000000
000000007F20000000
000000009C00000000
00000000C800000000
ENDCHAR
STARTCHAR ncommaaccent
ENCODING 326
SWIDTH 933 0
DWIDTH 22 0
BBX 18 21 2 -5
BITMAP
4F300016ADEFEB7100
4F303AEA521024AE30
4F4AE71000000008E1
4FF8100000000001E7
4F50000000000000CA
4F30000000000000BB
4F30000000000000BC
4F30000000000000BC
4F30000000000000BC
4F30000000000000BC
4F30000000000000BC
4F30000000000000BC
4F30000000000000BC
4F30000000000000BC
4F30000000000000BC
4F30000000000000BC
000000000000000000
000000000000000000
000000008F10000000
00000000AC00000000
00000000C700000000
ENDCHAR
STARTCHAR Ncaron
ENCODING 327
SWIDTH 936 0
DWIDTH 22 0
BBX 18 20 2 0
BITMAP
00002C600003A80000
000003BE75BD710000
00000003AD60000000
000000000000000000
4FC1000000000000AC
4FEB100000000000AC
4F5DB00000000000AC
4F32EB0000000000AC
4F302EA000000000AC
4F3003EA00000000AC
4F30003EA0000000AC
4F300003E9000000AC
4F3000003E900000AC
4F30000003E80000AC
4F300000004E8000AC
4F3000000004F800AC
4F30000000004F70AC
4F300000000004F7AC
4F3000000000005FEC
4F30000000000005FC
ENDCHAR
STARTCHAR ncaron
ENCODING 328
SWIDTH 933 0
DWIDTH 22 0
BBX 18 20 2 0
BITMAP
00005B400004B40000
000005CC66DC500000
00000005CB40000000
000000000000000000
4F300016ADEFEB7100
4F303AEA521024AE30
4F4AE71000000008E1
4FF8100000000001E7
4F50000000000000CA
4F30000000000000BB
4F30000000000000BC
4F30000000000000BC
4F30000000000000BC
4F30000000000000BC
4F30000000000000BC
4F30000000000000BC
4F30000000000000BC
4F30000000000000BC
4F30000000000000BC
4F30000000000000BC
ENDCHAR
STARTCHAR napostrophe
ENCODING 329
SWIDTH 1025 0
DWIDTH 25 0
BBX 22 16 0 0
BITMAP
4F501F6000049CEFEC8200
7E101F6018EB6310238E60
AA001F78E81000000005F4
D5001FFA200000000000CA
00001F800000000000008E
00001F600000000000007F
00001F600000000000007F
00001F600000000000007F
00001F600000000000007F
00001F600000000000007F
00001F600000000000007F
00001F600000000000007F
00001F600000000000007F
00001F600000000000007F
00001F600000000000007F
00001F600000000000007F
ENDCHAR
STARTCHAR Eng
ENCODING 330
SWIDTH 936 0
DWIDTH 22 0
BBX 18 16 2 0
BITMAP
4FC2000000000000BC
4FAE500000000000BC
4F34E80000000000BC
4F302CB100000000BC
4F30009D30000000BC
4F300006E6000000BC
4F3000003DA10000BC
4F30000001AC2000BC
4F3000000007E500BC
4F30000000004E80BC
4F300000000002CBCB
4F30000000000009FB
4F30000000000001F8
4F30000000000008F2
4F30000A8410139F60
4F3000027BEFED9300
ENDCHAR
STARTCHAR eng
ENCODING 331
SWIDTH 933 0
DWIDTH 22 0
BBX 18 16 2 0
BITMAP
4F300016ADEFEB7100
4F303AEA521024AE30
4F4AE71000000008E1
4FF8100000000001F7
4F50000000000000CA
4F30000000000000BB
4F30000000000000BC
4F30000000000000BC
4F30000000000000BC
4F30000000000000BC
4F30000000000000BB
4F30000000000000BB
4F30000000000000E8
4F30000000000006F3
4F3000089420028F70
4F3000016ADEFDA300
ENDCHAR
STARTCHAR Omacron
ENCODING 332
SWIDTH 983 0
DWIDTH 24 0
BBX 21 19 1 0
BITMAP
00000006FFFFFF10000000
0000000000000000000000
0000000000000000000000
00000169CDFEEC95000000
00018EA63101147CE60000
003EB200000000004DA000
02EA00000000000002E900
0AE1000000000000005F40
1F80000000000000000D90
4F40000000000000000AD0
6F200000000000000008F0
6F200000000000000008F0
4F40000000000000000AD0
1F80000000000000000D90
0AD1000000000000005F40
01EA00000000000002E900
003EB200000000004DA000
00029EA53101147CE60000
0000016ADEFFEC95000000
ENDCHAR
STARTCHAR omacron
ENCODING 333
SWIDTH 983 0
DWIDTH 24 0
BBX 21 19 1 0
BITMAP
00000006FFFFFF10000000
0000000000000000000000
0000000000000000000000
00000169CDFEEC95000000
00018EA63101147CE60000
003EB200000000004DA000
02EA00000000000002E900
0AE1000000000000005F40
1F80000000000000000D90
4F40000000000000000AD0
6F200000000000000008F0
6F200000000000000008F0
4F40000000000000000AD0
1F80000000000000000D90
0AD1000000000000005F40
01EA00000000000002E900
003EB200000000004DA000
00029EA53101147CE60000
0000016ADEFFEC95000000
ENDCHAR
STARTCHAR Obreve
ENCODING 334
SWIDTH 983 0
DWIDTH 24 0
BBX 21 20 1 0
BITMAP
0000001F50000AB0000000
00000007E5128F30000000
000000006CFEB300000000
0000000000000000000000
00000169CDFEEC95000000
00018EA63101147CE60000
003EB200000000004DA000
02EA00000000000002E900
0AE1000000000000005F40
1F80000000000000000D90
4F40000000000000000AD0
6F200000000000000008F0
6F200000000000000008F0
4F40000000000000000AD0
1F80000000000000000D90
0AD1000000000000005F40
01EA00000000000002E900
003EB200000000004DA000
00029EA53101147CE60000
0000016ADEFFEC95000000
ENDCHAR
STARTCHAR obreve
ENCODING 335
SWIDTH 983 0
DWIDTH 24 0
BBX 21 20 1 0
BITMAP
0000001F50000AB0000000
00000007E5128F30000000
000000006CFEB300000000
0000000000000000000000
00000169CDFEEC95000000
00018EA63101147CE60000
003EB200000000004DA000
02EA00000000000002E900
0AE1000000000000005F40
1F80000000000000000D90
4F40000000000000000AD0
6F200000000000000008F0
6F200000000000000008F0
4F40000000000000000AD0
1F80000000000000000D90
0AD1000000000000005F40
01EA00000000000002E900
003EB200000000004DA000
00029EA53101147CE60000
0000016ADEFFEC95000000
ENDCHAR
STARTCHAR Ohungarumlaut
ENCODING 336
SWIDTH 983 0
DWIDTH 24 0
BBX 21 20 1 0
BITMAP
0000000002B401A6000000
000000006EA25EB3000000
00000003C401C500000000
0000000000000000000000
00000169CDFEEC95000000
00018EA63101147CE60000
003EB200000000004DA000
02EA00000000000002E900
0AE1000000000000005F40
1F80000000000000000D90
4F40000000000000000AD0
6F200000000000000008F0
6F200000000000000008F0
4F40000000000000000AD0
1F80000000000000000D90
0AD1000000000000005F40
01EA00000000000002E900
003EB200000000004DA000
00029EA53101147CE60000
0000016ADEFFEC95000000
ENDCHAR
STARTCHAR ohungarumlaut
ENCODING 337
SWIDTH 983 0
DWIDTH 24 0
BBX 21 20 1 0
BITMAP
0000000002B401A6000000
000000006EA25EB3000000
00000003C401C500000000
0000000000000000000000
00000169CDFEEC95000000
00018EA63101147CE60000
003EB200000000004DA000
02EA00000000000002E900
0AE1000000000000005F40
1F80000000000000000D90
4F40000000000000000AD0
6F200000000000000008F0
6F200000000000000008F0
4F40000000000000000AD0
1F80000000000000000D90
0AD1000000000000005F40
01EA00000000000002E900
003EB200000000004DA000
00029EA53101147CE60000
0000016ADEFFEC95000000
ENDCHAR
STARTCHAR OE
ENCODING 338
SWIDTH 1338 0
DWIDTH 32 0
BBX 30 16 1 0
BITMAP
0000016ACEFFFFFFFFFFFFFFFFFFF2
00018EA631011249F5000000000000
003DB20000000004F5000000000000
01EB000000000004F5000000000000
09E1000000000004F5000000000000
1F80000000000004F5000000000000
4F40000000000004F5000000000000
6F20000000000004FFFFFFFFFFFF80
6F20000000000004F5000000000000
4F40000000000004F5000000000000
1F70000000000004F5000000000000
0AD1000000000004F5000000000000
01E9000000000004F5000000000000
003EA10000000004F5000000000000
0002AE9521001249F5000000000000
0000027ADEFFFFFFFFFFFFFFFFFFF5
ENDCHAR
STARTCHAR oe
ENCODING 339
SWIDTH 1688 0
DWIDTH 41 0
BBX 39 16 1 0
BITMAP
00000169CDFFEC840000000017BDFFEC83000000
00018EA63101147CD5000008E95211248EC20000
003EB200000000004D8001CA10000000019E4000
02EA00000000000002E70B90000000000009E100
0AE1000000000000005F8D10000000000001D800
1F80000000000000000DF6000000000000008D00
4F40000000000000000AF2000000000000005F10
6F200000000000000008FFFFFFFFFFFFFFFFFF20
6F200000000000000008F2000000000000000000
4F40000000000000000AF4000000000000000000
1F80000000000000000DF9000000000000000000
0AD1000000000000005E9F200000000000000000
01EA00000000000002E70CC10000000000000000
003EB200000000004D8001CD4000000000039000
00029EA53101147CD4000007EC74210147CA3000
0000016ADEFFEC940000000016ACEFEDB7200000
ENDCHAR
STARTCHAR Racute
ENCODING 340
SWIDTH 833 0
DWIDTH 20 0
BBX 17 20 2 0
BITMAP
0000000017C1000000
00000029EB60000000
000002D72000000000
000000000000000000
4FFFFFFFFFEC820000
4F3000000125AF7000
4F300000000006F300
4F300000000000F800
4F300000000000E900
4F300000000000F700
4F300000000006F300
4F30000001249F7000
4FFFFFFFFFFE930000
4F300000008F300000
4F300000000BD10000
4F3000000002EA0000
4F30000000005F7000
4F300000000008F300
4F300000000000CD10
4F3000000000002EB0
ENDCHAR
STARTCHAR racute
ENCODING 341
SWIDTH 609 0
DWIDTH 15 0
BBX 13 20 2 0
BITMAP
000000028B0000
000003AEA50000
00003C71000000
00000000000000
4F300039CEFE80
4F303CC6210230
4F38D400000000
4FCA1000000000
4F900000000000
4F300000000000
4F300000000000
4F300000000000
4F300000000000
4F300000000000
4F300000000000
4F300000000000
4F300000000000
4F300000000000
4F300000000000
4F300000000000
ENDCHAR
STARTCHAR Rcommaaccent
ENCODING 342
SWIDTH 833 0
DWIDTH 20 0
BBX 17 21 2 -5
BITMAP
4FFFFFFFFFEC820000
4F3000000125AF7000
4F300000000006F300
4F300000000000F800
4F300000000000E900
4F300000000000F700
4F300000000006F300
4F30000001249F7000
4FFFFFFFFFFE930000
4F300000008F300000
4F300000000BD10000
4F3000000002EA0000
4F30000000005F7000
4F300000000008F300
4F300000000000CD10
4F3000000000002EB0
000000000000000000
000000000000000000
0000000BD000000000
0000000D9000000000
0000000F4000000000
ENDCHAR
STARTCHAR rcommaaccent
ENCODING 343
SWIDTH 609 0
DWIDTH 15 0
BBX 13 21 2 -5
BITMAP
4F300039CEFE80
4F303CC6210230
4F38D400000000
4FCA1000000000
4F900000000000
4F300000000000
4F300000000000
4F300000000000
4F300000000000
4F300000000000
4F300000000000
4F300000000000
4F300000000000
4F300000000000
4F300000000000
4F300000000000
00000000000000
00000000000000
3F600000000000
6F100000000000
8B000000000000
ENDCHAR
STARTCHAR Rcaron
ENCODING 344
SWIDTH 833 0
DWIDTH 20 0
BBX 17 20 2 0
BITMAP
003C500003A7000000
0004BD75CD60000000
000003AC5000000000
000000000000000000
4FFFFFFFFFEC820000
4F3000000125AF7000
4F300000000006F300
4F300000000000F800
4F300000000000E900
4F300000000000F700
4F300000000006F300
4F30000001249F7000
4FFFFFFFFFFE930000
4F300000008F300000
4F300000000BD10000
4F3000000002EA0000
4F30000000005F7000
4F300000000008F300
4F300000000000CD10
4F3000000000002EB0
ENDCHAR
STARTCHAR rcaron
ENCODING 345
SWIDTH 609 0
DWIDTH 15 0
BBX 13 20 2 0
BITMAP
04B400004B5000
005CD66CC50000
00004BC4000000
00000000000000
4F300039CEFE80
4F303CC6210230
4F38D400000000
4FCA1000000000
4F900000000000
4F300000000000
4F300000000000
4F300000000000
4F300000000000
4F300000000000
4F300000000000
4F300000000000
4F300000000000
4F300000000000
4F300000000000
4F300000000000
ENDCHAR
STARTCHAR Sacute
ENCODING 346
SWIDTH 787 0
DWIDTH 19 0
BBX 15 20 2 0
BITMAP
0000000016C20000
00000028EC610000
000000C830000000
0000000000000000
0048BEEFDB610000
1BE84200237B9200
AD10000000004800
F800000000000000
EA00000000000000
5FA2000000000000
04BFA62000000000
00027BED95100000
000000037BFB5000
000000000017EB10
0000000000002EA0
00000000000008F0
00000000000009E0
A200000000003E90
4BB63100125AF900
0028BDEFEDB72000
ENDCHAR
STARTCHAR sacute
ENCODING 347
SWIDTH 787 0
DWIDTH 19 0
BBX 15 20 2 0
BITMAP
0000000016C20000
00000028EC610000
000000C830000000
0000000000000000
0048BEEFDB610000
1BE84200237B9200
AD10000000004800
F800000000000000
EA00000000000000
5FA2000000000000
04BFA62000000000
00027BED95100000
000000037BFB5000
000000000017EB10
0000000000002EA0
00000000000008F0
00000000000009E0
A200000000003E90
4BB63100125AF900
0028BDEFEDB72000
ENDCHAR
STARTCHAR Scircumflex
ENCODING 348
SWIDTH 787 0
DWIDTH 19 0
BBX 15 20 2 0
BITMAP
0000029D60000000
0003AE85BE710000
001C610002990000
0000000000000000
0048BEEFDB610000
1BE84200237B9200
AD10000000004800
F800000000000000
EA00000000000000
5FA2000000000000
04BFA62000000000
00027BED95100000
000000037BFB5000
000000000017EB10
0000000000002EA0
00000000000008F0
00000000000009E0
A200000000003E90
4BB63100125AF900
0028BDEFEDB72000
ENDCHAR
STARTCHAR scircumflex
ENCODING 349
SWIDTH 787 0
DWIDTH 19 0
BBX 15 20 2 0
BITMAP
0000029D60000000
0003AE85BE710000
001C610002990000
0000000000000000
0048BEEFDB610000
1BE84200237B9200
AD10000000004800
F800000000000000
EA00000000000000
5FA2000000000000
04BFA62000000000
00027BED95100000
000000037BFB5000
000000000017EB10
0000000000002EA0
00000000000008F0
00000000000009E0
A200000000003E90
4BB63100125AF900
0028BDEFEDB72000
ENDCHAR
STARTCHAR Scedilla
ENCODING 350
SWIDTH 787 0
DWIDTH 19 0
BBX 15 21 2 -5
BITMAP
0048BEEFDB610000
1BE84200237B9200
AD10000000004800
F800000000000000
EA00000000000000
5F91000000000000
04CFA62000000000
00037BED95100000
000000037BFB4000
000000000018EB10
0000000000002EA0
00000000000008F0
00000000000009E0
A200000000003E90
4BB63100125AF900
0038CEFFFDB72000
0000004C00000000
0000009FD6000000
000000006F100000
000000007F000000
00004FFFC5000000
ENDCHAR
STARTCHAR scedilla
ENCODING 351
SWIDTH 787 0
DWIDTH 19 0
BBX 15 21 2 -5
BITMAP
0048BEEFDB610000
1BE84200237B9200
AD10000000004800
F800000000000000
EA00000000000000
5F91000000000000
04CFA62000000000
00037BED95100000
000000037BFB4000
000000000018EB10
0000000000002EA0
00000000000008F0
00000000000009E0
A200000000003E90
4BB63100125AF900
0038CEFFFDB72000
0000004C00000000
0000009FD6000000
000000006F100000
000000007F000000
00004FFFC5000000
ENDCHAR
STARTCHAR Scaron
ENCODING 352
SWIDTH 787 0
DWIDTH 19 0
BBX 15 20 2 0
BITMAP
001C610002990000
0003AE84BE710000
0000029D61000000
0000000000000000
0048BEEFDB610000
1BE84200237B9200
AD10000000004800
F800000000000000
EA00000000000000
5FA2000000000000
04BFA62000000000
00027BED95100000
000000037BFB5000
000000000017EB10
0000000000002EA0
00000000000008F0
00000000000009E0
A200000000003E90
4BB63100125AF900
0028BDEFEDB72000
ENDCHAR
STARTCHAR scaron
ENCODING 353
SWIDTH 787 0
DWIDTH 19 0
BBX 15 20 2 0
BITMAP
001C610002990000
0003AE84BE710000
0000029D61000000
0000000000000000
0048BEEFDB610000
1BE84200237B9200
AD10000000004800
F800000000000000
EA00000000000000
5FA2000000000000
04BFA62000000000
00027BED95100000
000000037BFB5000
000000000017EB10
0000000000002EA0
00000000000008F0
00000000000009E0
A200000000003E90
4BB63100125AF900
0028BDEFEDB72000
ENDCHAR
STARTCHAR Tcommaaccent
ENCODING 354
SWIDTH 708 0
DWIDTH 17 0
BBX 17 21 0 -5
BITMAP
8FFFFFFFFFFFFFFF80
00000003F400000000
00000003F400000000
00000003F400000000
00000003F400000000
00000003F400000000
00000003F400000000
00000003F400000000
00000003F400000000
00000003F400000000
00000003F400000000
00000003F400000000
00000003F400000000
00000003F400000000
00000003F400000000
00000003F400000000
000000000000000000
000000000000000000
00000003F600000000
00000005F100000000
00000008C000000000
ENDCHAR
STARTCHAR tcommaaccent
ENCODING 355
SWIDTH 708 0
DWIDTH 17 0
BBX 17 21 0 -5
BITMAP
8FFFFFFFFFFFFFFF80
00000003F400000000
00000003F400000000
00000003F400000000
00000003F400000000
00000003F400000000
00000003F400000000
00000003F400000000
00000003F400000000
00000003F400000000
00000003F400000000
00000003F400000000
00000003F400000000
00000003F400000000
00000003F400000000
00000003F400000000
000000000000000000
000000000000000000
00000003F600000000
00000005F100000000
00000008C000000000
ENDCHAR
STARTCHAR Tcaron
ENCODING 356
SWIDTH 708 0
DWIDTH 17 0
BBX 17 20 0 0
BITMAP
0000B8100018B00000
000029E949E9200000
00000018D810000000
000000000000000000
8FFFFFFFFFFFFFFF80
00000003F400000000
00000003F400000000
00000003F400000000
00000003F400000000
00000003F400000000
00000003F400000000
00000003F400000000
00000003F400000000
00000003F400000000
00000003F400000000
00000003F400000000
00000003F400000000
00000003F400000000
00000003F400000000
00000003F400000000
ENDCHAR
STARTCHAR tcaron
ENCODING 357
SWIDTH 708 0
DWIDTH 17 0
BBX 17 20 0 0
BITMAP
0000B8100017B00000
000028E949E9200000
00000018D810000000
000000000000000000
8FFFFFFFFFFFFFFF80
00000003F400000000
00000003F400000000
00000003F400000000
00000003F400000000
00000003F400000000
00000003F400000000
00000003F400000000
00000003F400000000
00000003F400000000
00000003F400000000
00000003F400000000
00000003F400000000
00000003F400000000
00000003F400000000
00000003F400000000
ENDCHAR
STARTCHAR Tbar
ENCODING 358
SWIDTH 708 0
DWIDTH 17 0
BBX 17 16 0 0
BITMAP
8FFFFFFFFFFFFFFF80
00000003F400000000
00000003F400000000
00000003F400000000
00000003F400000000
00000003F400000000
00DFFFFFFFFFFFD000
00000003F400000000
00000003F400000000
00000003F400000000
00000003F400000000
00000003F400000000
00000003F400000000
00000003F400000000
00000003F400000000
00000003F400000000
ENDCHAR
STARTCHAR tbar
ENCODING 359
SWIDTH 708 0
DWIDTH 17 0
BBX 17 16 0 0
BITMAP
8FFFFFFFFFFFFFFF80
00000003F400000000
00000003F400000000
00000003F400000000
00000003F400000000
00000003F400000000
00DFFFFFFFFFFFD000
00000003F400000000
00000003F400000000
00000003F400000000
00000003F400000000
00000003F400000000
00000003F400000000
00000003F400000000
00000003F400000000
00000003F400000000
ENDCHAR
STARTCHAR Utilde
ENCODING 360
SWIDTH 891 0
DWIDTH 21 0
BBX 17 20 2 0
BITMAP
000006EC3005C00000
00002E24D81A800000
00005B0019EB100000
000000000000000000
7F0000000000000AC0
7F0000000000000AC0
7F0000000000000AC0
7F0000000000000AC0
7F0000000000000AC0
7F0000000000000AC0
7F0000000000000AC0
7F0000000000000AC0
7F0000000000000AC0
7F0000000000000AC0
7F0000000000000AC0
5F1000000000000BB0
1F7000000000002E70
08F50000000002CD10
007EC63101259FB100
00016ADEFEEB830000
ENDCHAR
STARTCHAR utilde
ENCODING 361
SWIDTH 931 0
DWIDTH 22 0
BBX 18 20 2 0
BITMAP
000002CE7000D40000
00000A81AC34E10000
00000E3005DE500000
000000000000000000
5F20000000000000D9
5F20000000000000D9
5F20000000000000D9
5F20000000000000D9
5F20000000000000D9
5F20000000000000D9
5F20000000000000D9
5F20000000000000D9
5F20000000000000D9
5F20000000000000D9
5F20000000000000D9
4F30000000000001E9
1F6000000000005DF9
08D1000000004BC4D9
00AD6210148DC500D9
0004ADFFEB730000D9
ENDCHAR
STARTCHAR Umacron
ENCODING 362
SWIDTH 891 0
DWIDTH 21 0
BBX 17 19 2 0
BITMAP
000008FFFFFE000000
000000000000000000
000000000000000000
7F0000000000000AC0
7F0000000000000AC0
7F0000000000000AC0
7F0000000000000AC0
7F0000000000000AC0
7F0000000000000AC0
7F0000000000000AC0
7F0000000000000AC0
7F0000000000000AC0
7F0000000000000AC0
7F0000000000000AC0
5F1000000000000BB0
1F7000000000002E70
08F50000000002CD10
007EC63101259FB100
00016ADEFEEB830000
ENDCHAR
STARTCHAR umacron
ENCODING 363
SWIDTH 931 0
DWIDTH 22 0
BBX 18 19 2 0
BITMAP
000001FFFFFF500000
000000000000000000
000000000000000000
5F20000000000000D9
5F20000000000000D9
5F20000000000000D9
5F20000000000000D9
5F20000000000000D9
5F20000000000000D9
5F20000000000000D9
5F20000000000000D9
5F20000000000000D9
5F20000000000000D9
5F20000000000000D9
4F30000000000001E9
1F6000000000005DF9
08D1000000004BC4D9
00AD6210148DC500D9
0004ADFFEB730000D9
ENDCHAR
STARTCHAR Ubreve
ENCODING 364
SWIDTH 891 0
DWIDTH 21 0
BBX 17 20 2 0
BITMAP
00002F30000C900000
000009D412AE200000
0000007DFEA2000000
000000000000000000
7F0000000000000AC0
7F0000000000000AC0
7F0000000000000AC0
7F0000000000000AC0
7F0000000000000AC0
7F0000000000000AC0
7F0000000000000AC0
7F0000000000000AC0
7F0000000000000AC0
7F0000000000000AC0
7F0000000000000AC0
5F1000000000000BB0
1F7000000000002E70
08F50000000002CD10
007EC63101259FB100
00016ADEFEEB830000
ENDCHAR
STARTCHAR ubreve
ENCODING 365
SWIDTH 931 0
DWIDTH 22 0
BBX 18 20 2 0
BITMAP
00000BA00006E10000
000003F8215E700000
0000003BEFC5000000
000000000000000000
5F20000000000000D9
5F20000000000000D9
5F20000000000000D9
5F20000000000000D9
5F20000000000000D9
5F20000000000000D9
5F20000000000000D9
5F20000000000000D9
5F20000000000000D9
5F20000000000000D9
5F20000000000000D9
4F30000000000001E9
1F6000000000005DF9
08D1000000004BC4D9
00AD6210148DC500D9
0004ADFFEB730000D9
ENDCHAR
STARTCHAR Uring
ENCODING 366
SWIDTH 891 0
DWIDTH 21 0
BBX 17 21 2 0
BITMAP
0000006DFE91000000
000003E401BA000000
000003E301BA000000
0000006DFEA1000000
000000000000000000
7F0000000000000AC0
7F0000000000000AC0
7F0000000000000AC0
7F0000000000000AC0
7F0000000000000AC0
7F0000000000000AC0
7F0000000000000AC0
7F0000000000000AC0
7F0000000000000AC0
7F0000000000000AC0
7F0000000000000AC0
5F1000000000000BB0
1F7000000000002E70
08F50000000002CD10
007EC63101259FB100
00016ADEFEEB830000
ENDCHAR
STARTCHAR uring
ENCODING 367
SWIDTH 931 0
DWIDTH 22 0
BBX 18 21 2 0
BITMAP
0000002AEEC5000000
000000C9105F100000
000000C9105F100000
0000002BEEC5000000
000000000000000000
5F20000000000000D9
5F20000000000000D9
5F20000000000000D9
5F20000000000000D9
5F20000000000000D9
5F20000000000000D9
5F20000000000000D9
5F20000000000000D9
5F20000000000000D9
5F20000000000000D9
5F20000000000000D9
4F30000000000001E9
1F6000000000005DF9
08D1000000004BC4D9
00AD6210148DC500D9
0004ADFFEB730000D9
ENDCHAR
STARTCHAR Uhungarumlaut
ENCODING 368
SWIDTH 891 0
DWIDTH 21 0
BBX 17 20 2 0
BITMAP
00000003C202B40000
0000007F916EA20000
000005B303C4000000
000000000000000000
7F0000000000000AC0
7F0000000000000AC0
7F0000000000000AC0
7F0000000000000AC0
7F0000000000000AC0
7F0000000000000AC0
7F0000000000000AC0
7F0000000000000AC0
7F0000000000000AC0
7F0000000000000AC0
7F0000000000000AC0
5F1000000000000BB0
1F7000000000002E70
08F50000000002CD10
007EC63101259FB100
00016ADEFEEB830000
ENDCHAR
STARTCHAR uhungarumlaut
ENCODING 369
SWIDTH 931 0
DWIDTH 22 0
BBX 18 20 2 0
BITMAP
0000000088007A0000
0000003DD42BD60000
000000C600A7100000
000000000000000000
5F20000000000000D9
5F20000000000000D9
5F20000000000000D9
5F20000000000000D9
5F20000000000000D9
5F20000000000000D9
5F20000000000000D9
5F20000000000000D9
5F20000000000000D9
5F20000000000000D9
5F20000000000000D9
4F30000000000001E9
1F6000000000005DF9
08D1000000004BC4D9
00AD6210148DC500D9
0004ADFFEB730000D9
ENDCHAR
STARTCHAR Uogonek
ENCODING 370
SWIDTH 891 0
DWIDTH 21 0
BBX 17 20 2 -4
BITMAP
7F0000000000000AC0
7F0000000000000AC0
7F0000000000000AC0
7F0000000000000AC0
7F0000000000000AC0
7F0000000000000AC0
7F0000000000000AC0
7F0000000000000AC0
7F0000000000000AC0
7F0000000000000AC0
7F0000000000000AC0
5F1000000000000BB0
2F7000000000002E70
08F50000000002CD10
007EC63101259FB100
00017BDFFFEC930000
0000000AA100000000
0000005E1000000000
0000006E3000000000
0000001AEFF9000000
ENDCHAR
STARTCHAR uogonek
ENCODING 371
SWIDTH 931 0
DWIDTH 22 0
BBX 20 20 2 -4
BITMAP
5F20000000000000D900
5F20000000000000D900
5F20000000000000D900
5F20000000000000D900
5F20000000000000D900
5F20000000000000D900
5F20000000000000D900
5F20000000000000D900
5F20000000000000D900
5F20000000000000D900
5F20000000000000D900
4F30000000000001E900
1F6000000000005DF900
08D1000000004BC4D900
00AD6210148DC500D900
0004ADFFEB730000D900
000000000000001B9100
00000000000000AA0000
00000000000000DA1000
000000000000004CFFF3
ENDCHAR
STARTCHAR Wcircumflex
ENCODING 372
SWIDTH 1266 0
DWIDTH 30 0
BBX 29 20 1 0
BITMAP
0000000000003AD600000000000000
00000000003BE75BD6000000000000
0000000002C600003A700000000000
000000000000000000000000000000
DB00000000001EF500000000005F40
8F20000000006FEB0000000000BD00
2F8000000000BC7F2000000002F700
0AD000000002F61F8000000008F100
04F400000008F10AD00000000DA000
00DA0000000DA004F40000004F4000
007F1000004F4000DA000000AD0000
001F700000AD00007F100002F70000
000AD00001F700002F600007F10000
0004F40006F200000BC0000DA00000
0000DA000CA0000005F3004F400000
00007F103F50000000E800AD000000
00001F708E000000008E01F7000000
00000AD0E8000000002F57E1000000
000004F8F2000000000BBD90000000
000000CFB00000000005FF30000000
ENDCHAR
STARTCHAR wcircumflex
ENCODING 373
SWIDTH 1266 0
DWIDTH 30 0
BBX 29 20 1 0
BITMAP
0000000000003AD600000000000000
00000000003BE75BD6000000000000
0000000002C600003A700000000000
000000000000000000000000000000
DB00000000001EF500000000005F40
8F20000000006FEB0000000000BD00
2F8000000000BC7F2000000002F700
0AD000000002F61F8000000008F100
04F400000008F10AD00000000DA000
00DA0000000DA004F40000004F4000
007F1000004F4000DA000000AD0000
001F700000AD00007F100002F70000
000AD00001F700002F600007F10000
0004F40006F200000BC0000DA00000
0000DA000CA0000005F3004F400000
00007F103F50000000E800AD000000
00001F708E000000008E01F7000000
00000AD0E8000000002F57E1000000
000004F8F2000000000BBD90000000
000000CFB00000000005FF30000000
ENDCHAR
STARTCHAR Ycircumflex
ENCODING 374
SWIDTH 763 0
DWIDTH 18 0
BBX 17 20 1 0
BITMAP
0000003AD600000000
00003BE75BD6000000
0002C600003A700000
000000000000000000
BE200000000000BE20
1DC10000000008F400
02EA000000005F6000
004F70000003E90000
0007F500001DB00000
00009E3000CD100000
00000CD109E3000000
000001DB7F50000000
0000003EF700000000
00000009E000000000
00000009D000000000
00000009D000000000
00000009D000000000
00000009D000000000
00000009D000000000
00000009D000000000
ENDCHAR
STARTCHAR ycircumflex
ENCODING 375
SWIDTH 911 0
DWIDTH 22 0
BBX 18 20 2 0
BITMAP
00000017D920000000
000017EA48E9200000
000099200017C00000
000000000000000000
DA00000000000005F2
DA00000000000005F2
DA00000000000005F2
DA00000000000005F2
CA00000000000005F2
BC00000000000008F2
7F1000000000004EF2
2E700000000004C6F2
07F4000000006C25F2
006FA520126D9105F2
00028CEFEC820006F1
000000000000000BE0
000000000000005F70
A5000000000018FA00
3BD852101259EE7000
0027BDEFEDB9500000
ENDCHAR
STARTCHAR Ydieresis
ENCODING 376
SWIDTH 763 0
DWIDTH 18 0
BBX 17 19 1 0
BITMAP
00000FB005F6000000
00000FB005F6000000
000000000000000000
BE200000000000BE20
1DC10000000008F400
02EA000000005F6000
004F70000003E90000
0007F500001DB00000
00009E3000CD100000
00000CD109E3000000
000001DB7F50000000
0000003EF700000000
00000009E000000000
00000009D000000000
00000009D000000000
00000009D000000000
00000009D000000000
00000009D000000000
00000009D000000000
ENDCHAR
STARTCHAR Zacute
ENCODING 377
SWIDTH 728 0
DWIDTH 17 0
BBX 15 20 1 0
BITMAP
00000000029A0000
00000004BEA40000
0000005C61000000
0000000000000000
0EFFFFFFFFFFFF90
000000000002ED10
00000000001CE200
0000000000AF4000
0000000008F60000
000000005F800000
00000003EB000000
0000001DD1000000
000000CE20000000
000009F400000000
00007F6000000000
0004F80000000000
002EB00000000000
01DD100000000000
0BE2000000000000
4FFFFFFFFFFFFFE0
ENDCHAR
STARTCHAR zacute
ENCODING 378
SWIDTH 728 0
DWIDTH 17 0
BBX 15 20 1 0
BITMAP
00000000029A0000
00000004BEA40000
0000005C61000000
0000000000000000
0EFFFFFFFFFFFF90
000000000002ED10
00000000001CE200
0000000000AF4000
0000000008F60000
000000005F800000
00000003EB000000
0000001DD1000000
000000CE20000000
000009F400000000
00007F6000000000
0004F80000000000
002EB00000000000
01DD100000000000
0BE2000000000000
4FFFFFFFFFFFFFE0
ENDCHAR
STARTCHAR Zdotaccent
ENCODING 379
SWIDTH 728 0
DWIDTH 17 0
BBX 15 19 1 0
BITMAP
0000000FC0000000
0000000FC0000000
0000000000000000
0EFFFFFFFFFFFF90
000000000002ED10
00000000001CE200
0000000000AF4000
0000000008F60000
000000005F800000
00000003EB000000
0000001DD1000000
000000CE20000000
000009F400000000
00007F6000000000
0004F80000000000
002EB00000000000
01DD100000000000
0BE2000000000000
4FFFFFFFFFFFFFE0
ENDCHAR
STARTCHAR zdotaccent
ENCODING 380
SWIDTH 728 0
DWIDTH 17 0
BBX 15 19 1 0
BITMAP
0000000FC0000000
0000000FC0000000
0000000000000000
0EFFFFFFFFFFFF90
000000000002ED10
00000000001CE200
0000000000AF4000
0000000008F60000
000000005F800000
00000003EB000000
0000001DD1000000
000000CE20000000
000009F400000000
00007F6000000000
0004F80000000000
002EB00000000000
01DD100000000000
0BE2000000000000
4FFFFFFFFFFFFFE0
ENDCHAR
STARTCHAR Zcaron
ENCODING 381
SWIDTH 728 0
DWIDTH 17 0
BBX 15 20 1 0
BITMAP
0006A400005C3000
00006DC56DB40000
0000005CB4000000
0000000000000000
0EFFFFFFFFFFFF90
000000000002ED10
00000000001CE200
0000000000AF4000
0000000008F60000
000000005F800000
00000003EB000000
0000001DD1000000
000000CE20000000
000009F400000000
00007F6000000000
0004F80000000000
002EB00000000000
01DD100000000000
0BE2000000000000
4FFFFFFFFFFFFFE0
ENDCHAR
STARTCHAR zcaron
ENCODING 382
SWIDTH 728 0
DWIDTH 17 0
BBX 15 20 1 0
BITMAP
0006A400005C3000
00006DC56DB40000
0000005CB4000000
0000000000000000
0EFFFFFFFFFFFF90
000000000002ED10
00000000001CE200
0000000000AF4000
0000000008F60000
000000005F800000
00000003EB000000
0000001DD1000000
000000CE20000000
000009F400000000
00007F6000000000
0004F80000000000
002EB00000000000
01DD100000000000
0BE2000000000000
4FFFFFFFFFFFFFE0
ENDCHAR
STARTCHAR florin
ENCODING 402
SWIDTH 835 0
DWIDTH 20 0
BBX 20 17 0 -1
BITMAP
00000000000018DEEC60
000000000001DC411385
000000000008E1000000
00000000000E80000000
00000000004F40000000
00000000008E00000000
000000AFFFFFFFF90000
0000000003F500000000
0000000008F100000000
000000000CB000000000
000000001F6000000000
000000006F2000000000
00000000BC0000000000
00000001F60000000000
00000009E10000000000
4931028E400000000000
06BEFD93000000000000
ENDCHAR
STARTCHAR AEacute
ENCODING 508
SWIDTH 1172 0
DWIDTH 28 0
BBX 27 20 0 0
BITMAP
00000000000000000003A8000000
000000000000000005CE93000000
00000000000000007B5000000000
0000000000000000000000000000
00000000007FFFFFFFFFFFFFFF20
0000000002E54F50000000000000
000000000CA04F50000000000000
000000007D104F50000000000000
00000003F4004F50000000000000
0000000C90004F50000000000000
0000008D10004F50000000000000
000003F400004FFFFFFFFFFFF800
00001D9000004F50000000000000
00009D1000004F50000000000000
0004FFFFFFFFFF50000000000000
001D600000004F50000000000000
009D000000004F50000000000000
04F5000000004F50000000000000
1EB0000000004F50000000000000
AF30000000004FFFFFFFFFFFFF50
ENDCHAR
STARTCHAR aeacute
ENCODING 509
SWIDTH 1551 0
DWIDTH 37 0
BBX 35 20 1 0
BITMAP
000000000000000000029A00000000000000
000000000000000004AEA400000000000000
00000000000000005C610000000000000000
000000000000000000000000000000000000
000016ADEFECB7200000027CEFEDB7200000
0039C842101359E80001AD7310125AF91000
00B400000000002CA03D70000000002CD100
0000000000000001E5D5000000000001CB00
0000000000000000BF900000000000003F40
0000000000000000BF200000000000000C90
00000001468ABCDEFD0000000000000009C0
000059DFDA864321BFFFFFFFFFFFFFFFFFD0
006EE94100000000BC000000000000000000
09F70000000000009F000000000000000000
4F600000000000005F500000000000000000
7F100000000000001EC00000000000000000
6F200000000000007DD90000000000000000
2EA000000000016D911CB200000000005700
04ED63100147AD8200017EB63101258D8100
0017BDFFEDB840000000016ACEFEDA610000
ENDCHAR
STARTCHAR Oslashacute
ENCODING 510
SWIDTH 983 0
DWIDTH 24 0
BBX 21 22 1 -2
BITMAP
00000000000029A0000000
00000000004BEA40000000
0000000006B610001D8000
00000000000000009C0000
00000169CDFEDC87F30000
00018EA6310114AFE50000
003EB200000001D85DA000
02EA000000000AC002E900
0AE1000000006E20005F40
1F8000000002E600000DA0
4F400000000CA000000AD0
6F200000008D10000008F0
6F20000004F400000008F0
4F4000001E800000000AD0
1F800000BC000000000DA0
09D00007E2000000005F40
02EA003F5000000002EA00
003EB3D9000000004DA100
0001AFF63101147CE60000
00007E6ACEFFEC95000000
0003F50000000000000000
000CA00000000000000000
ENDCHAR
STARTCHAR oslashacute
ENCODING 511
SWIDTH 983 0
DWIDTH 24 0
BBX 21 22 1 -2
BITMAP
00000000000029A0000000
00000000004BEA40000000
0000000006B610001D8000
00000000000000009C0000
00000169CDFEDC87F30000
00018EA6310114AFE50000
003EB200000001D85DA000
02EA000000000AC002E900
0AE1000000006E20005F40
1F8000000002E600000DA0
4F400000000CA000000AD0
6F200000008D10000008F0
6F20000004F400000008F0
4F4000001E800000000AD0
1F800000BC000000000DA0
09D00007E2000000005F40
02EA003F5000000002EA00
003EB3D9000000004DA100
0001AFF63101147CE60000
00007E6ACEFFEC95000000
0003F50000000000000000
000CA00000000000000000
ENDCHAR
STARTCHAR dotlessj
ENCODING 567
SWIDTH 590 0
DWIDTH 14 0
BBX 12 16 0 0
BITMAP
0000000000E8
0000000000E8
0000000000E8
0000000000E8
0000000000E8
0000000000E8
0000000000E8
0000000000E8
0000000000E8
0000000000E8
0000000000E8
0000000000F7
0000000003F4
000000001CC0
C7421016DC20
37BDEFEB6000
ENDCHAR
STARTCHAR circumflex
ENCODING 710
SWIDTH 527 0
DWIDTH 13 0
BBX 10 3 1 13
BITMAP
00029D7100
02AE84AE71
1C71000299
ENDCHAR
STARTCHAR caron
ENCODING 711
SWIDTH 527 0
DWIDTH 13 0
BBX 10 3 1 13
BITMAP
1C71000299
03AE84AE71
00029D7100
ENDCHAR
STARTCHAR breve
ENCODING 728
SWIDTH 527 0
DWIDTH 13 0
BBX 9 3 2 13
BITMAP
8D00003F30
1EA214DA00
02AEFD7000
ENDCHAR
STARTCHAR dotaccent
ENCODING 729
SWIDTH 527 0
DWIDTH 13 0
BBX 3 2 5 13
BITMAP
9F40
9F40
ENDCHAR
STARTCHAR ring
ENCODING 730
SWIDTH 527 0
DWIDTH 13 0
BBX 7 4 3 13
BITMAP
19EFD600
9B203E40
9B203E40
19EFD700
ENDCHAR
STARTCHAR ogonek
ENCODING 731
SWIDTH 527 0
DWIDTH 13 0
BBX 6 4 3 -4
BITMAP
02B700
1E5000
4F4000
09EFFC
ENDCHAR
STARTCHAR tilde
ENCODING 732
SWIDTH 527 0
DWIDTH 13 0
BBX 9 3 2 13
BITMAP
1BE9100B60
7B18D42E20
B6004CE700
ENDCHAR
STARTCHAR hungarumlaut
ENCODING 733
SWIDTH 527 0
DWIDTH 13 0
BBX 9 3 3 13
BITMAP
006A005B10
2BE61AE700
A810891000
ENDCHAR
STARTCHAR commaaccent
ENCODING 806
SWIDTH 527 0
DWIDTH 13 0
BBX 3 3 5 -5
BITMAP
6F30
8D00
A900
ENDCHAR
STARTCHAR mu
ENCODING 956
SWIDTH 705 0
DWIDTH 17 0
BBX 15 16 0 -5
BITMAP
0003F40000000D90
0006F10000001F60
0009D00000004F30
000CA00000007F00
000E70000000AC00
003F40000000D900
006F10000001F600
008F1000000AF400
00BF7000009AF300
00E8D6114C72F400
02F43BEDA300E800
05F1000000000000
08E0000000000000
0BB0000000000000
0E80000000000000
2F50000000000000
ENDCHAR
STARTCHAR Wgrave
ENCODING 7808
SWIDTH 1266 0
DWIDTH 30 0
BBX 29 20 1 0
BITMAP
000000000099300000000000000000
000000000049EB5000000000000000
00000000000016B600000000000000
000000000000000000000000000000
DB00000000001EF500000000005F40
8F20000000006FEB0000000000BD00
2F8000000000BC7F2000000002F700
0AD000000002F61F8000000008F100
04F400000008F10AD00000000DA000
00DA0000000DA004F40000004F4000
007F1000004F4000DA000000AD0000
001F700000AD00007F100002F70000
000AD00001F700002F600007F10000
0004F40006F200000BC0000DA00000
0000DA000CA0000005F3004F400000
00007F103F50000000E800AD000000
00001F708E000000008E01F7000000
00000AD0E8000000002F57E1000000
000004F8F2000000000BBD90000000
000000CFB00000000005FF30000000
ENDCHAR
STARTCHAR wgrave
ENCODING 7809
SWIDTH 1266 0
DWIDTH 30 0
BBX 29 20 1 0
BITMAP
000000000099300000000000000000
000000000049EB5000000000000000
00000000000016B600000000000000
000000000000000000000000000000
DB00000000001EF500000000005F40
8F20000000006FEB0000000000BD00
2F8000000000BC7F2000000002F700
0AD000000002F61F8000000008F100
04F400000008F10AD00000000DA000
00DA0000000DA004F40000004F4000
007F1000004F4000DA000000AD0000
001F700000AD00007F100002F70000
000AD00001F700002F600007F10000
0004F40006F200000BC0000DA00000
0000DA000CA0000005F3004F400000
00007F103F50000000E800AD000000
00001F708E000000008E01F7000000
00000AD0E8000000002F57E1000000
000004F8F2000000000BBD90000000
000000CFB00000000005FF30000000
ENDCHAR
STARTCHAR Wacute
ENCODING 7810
SWIDTH 1266 0
DWIDTH 30 0
BBX 29 20 1 0
BITMAP
00000000000000017C100000000000
000000000000029EB6100000000000
0000000000001D8200000000000000
000000000000000000000000000000
DB00000000001EF500000000005F40
8F20000000006FEB0000000000BD00
2F8000000000BC7F2000000002F700
0AD000000002F61F8000000008F100
04F400000008F10AD00000000DA000
00DA0000000DA004F40000004F4000
007F1000004F4000DA000000AD0000
001F700000AD00007F100002F70000
000AD00001F700002F600007F10000
0004F40006F200000BC0000DA00000
0000DA000CA0000005F3004F400000
00007F103F50000000E800AD000000
00001F708E000000008E01F7000000
00000AD0E8000000002F57E1000000
000004F8F2000000000BBD90000000
000000CFB00000000005FF30000000
ENDCHAR
STARTCHAR wacute
ENCODING 7811
SWIDTH 1266 0
DWIDTH 30 0
BBX 29 20 1 0
BITMAP
00000000000000017C100000000000
000000000000029EB6100000000000
0000000000001D8200000000000000
000000000000000000000000000000
DB00000000001EF500000000005F40
8F20000000006FEB0000000000BD00
2F8000000000BC7F2000000002F700
0AD000000002F61F8000000008F100
04F400000008F10AD00000000DA000
00DA0000000DA004F40000004F4000
007F1000004F4000DA000000AD0000
001F700000AD00007F100002F70000
000AD00001F700002F600007F10000
0004F40006F200000BC0000DA00000
0000DA000CA0000005F3004F400000
00007F103F50000000E800AD000000
00001F708E000000008E01F7000000
00000AD0E8000000002F57E1000000
000004F8F2000000000BBD90000000
000000CFB00000000005FF30000000
ENDCHAR
STARTCHAR Wdieresis
ENCODING 7812
SWIDTH 1266 0
DWIDTH 30 0
BBX 29 19 1 0
BITMAP
00000000000FB005F6000000000000
00000000000FB005F6000000000000
000000000000000000000000000000
DB00000000001EF500000000005F40
8F20000000006FEB0000000000BD00
2F8000000000BC7F2000000002F700
0AD000000002F61F8000000008F100
04F400000008F10AD00000000DA000
00DA0000000DA004F40000004F4000
007F1000004F4000DA000000AD0000
001F700000AD00007F100002F70000
000AD00001F700002F600007F10000
0004F40006F200000BC0000DA00000
0000DA000CA0000005F3004F400000
00007F103F50000000E800AD000000
00001F708E000000008E01F7000000
00000AD0E8000000002F57E1000000
000004F8F2000000000BBD90000000
000000CFB00000000005FF30000000
ENDCHAR
STARTCHAR wdieresis
ENCODING 7813
SWIDTH 1266 0
DWIDTH 30 0
BBX 29 19 1 0
BITMAP
00000000000FB005F6000000000000
00000000000FB005F6000000000000
000000000000000000000000000000
DB00000000001EF500000000005F40
8F20000000006FEB0000000000BD00
2F8000000000BC7F2000000002F700
0AD000000002F61F8000000008F100
04F400000008F10AD00000000DA000
00DA0000000DA004F40000004F4000
007F1000004F4000DA000000AD0000
001F700000AD00007F100002F70000
000AD00001F700002F600007F10000
0004F40006F200000BC0000DA00000
0000DA000CA0000005F3004F400000
00007F103F50000000E800AD000000
00001F708E000000008E01F7000000
00000AD0E8000000002F57E1000000
000004F8F2000000000BBD90000000
000000CFB00000000005FF30000000
ENDCHAR
STARTCHAR Ygrave
ENCODING 7922
SWIDTH 763 0
DWIDTH 18 0
BBX 17 20 1 0
BITMAP
000099300000000000
000049EB5000000000
00000016B600000000
000000000000000000
BE200000000000BE20
1DC10000000008F400
02EA000000005F6000
004F70000003E90000
0007F500001DB00000
00009E3000CD100000
00000CD109E3000000
000001DB7F50000000
0000003EF700000000
00000009E000000000
00000009D000000000
00000009D000000000
00000009D000000000
00000009D000000000
00000009D000000000
00000009D000000000
ENDCHAR
STARTCHAR ygrave
ENCODING 7923
SWIDTH 911 0
DWIDTH 22 0
BBX 18 20 2 0
BITMAP
00003C600000000000
000017CE8100000000
000000039C00000000
000000000000000000
DA00000000000005F2
DA00000000000005F2
DA00000000000005F2
DA00000000000005F2
CA00000000000005F2
BC00000000000008F2
7F1000000000004EF2
2E700000000004C6F2
07F4000000006C25F2
006FA520126D9105F2
00028CEFEC820006F1
000000000000000BE0
000000000000005F70
A5000000000018FA00
3BD852101259EE7000
0027BDEFEDB9500000
ENDCHAR
STARTCHAR endash
ENCODING 8211
SWIDTH 419 0
DWIDTH 10 0
BBX 10 1 0 7
BITMAP
8FFFFFFFF9
ENDCHAR
STARTCHAR emdash
ENCODING 8212
SWIDTH 1000 0
DWIDTH 24 0
BBX 24 1 0 7
BITMAP
FFFFFFFFFFFFFFFFFFFFFFFF
ENDCHAR
STARTCHAR quoteleft
ENCODING 8216
SWIDTH 163 0
DWIDTH 4 0
BBX 4 4 0 12
BITMAP
02F1
07D0
0CB0
2F80
ENDCHAR
STARTCHAR quoteright
ENCODING 8217
SWIDTH 163 0
DWIDTH 4 0
BBX 4 4 0 12
BITMAP
09F1
0CB0
0F60
3F10
ENDCHAR
STARTCHAR quotesinglbase
ENCODING 8218
SWIDTH 163 0
DWIDTH 4 0
BBX 4 4 0 -2
BITMAP
09F1
0CB0
0F60
3F10
ENDCHAR
STARTCHAR quotedblleft
ENCODING 8220
SWIDTH 303 0
DWIDTH 7 0
BBX 7 4 0 12
BITMAP
02F10C70
07D02F40
0CB07F10
2F80BD00
ENDCHAR
STARTCHAR quotedblright
ENCODING 8221
SWIDTH 303 0
DWIDTH 7 0
BBX 7 4 0 12
BITMAP
09F13F60
0CB06F10
0F609B00
3F10C600
ENDCHAR
STARTCHAR quotedblbase
ENCODING 8222
SWIDTH 303 0
DWIDTH 7 0
BBX 7 4 0 -2
BITMAP
09F13F60
0CB06F10
0F609B00
3F10C600
ENDCHAR
STARTCHAR dagger
ENCODING 8224
SWIDTH 500 0
DWIDTH 12 0
BBX 8 16 2 0
BITMAP
000BB000
000BB000
000BB000
000BB000
DFFFFFFD
000BB000
000BB000
000BB000
000BB000
000BB000
000BB000
000BB000
000BB000
000BB000
000BB000
000BB000
ENDCHAR
STARTCHAR daggerdbl
ENCODING 8225
SWIDTH 500 0
DWIDTH 12 0
BBX 8 16 2 0
BITMAP
000BB000
000BB000
000BB000
000BB000
DFFFFFFD
000BB000
000BB000
000BB000
000BB000
DFFFFFFD
000BB000
000BB000
000BB000
000BB000
000BB000
000BB000
ENDCHAR
STARTCHAR bullet
ENCODING 8226
SWIDTH 352 0
DWIDTH 8 0
BBX 6 5 1 6
BITMAP
03CE80
0DFFF4
1FFFF7
0DFFF4
03CE80
ENDCHAR
STARTCHAR ellipsis
ENCODING 8230
SWIDTH 555 0
DWIDTH 13 0
BBX 12 3 1 0
BITMAP
CF405FA00EF2
CF405FA00EF2
CF405FA00EF2
ENDCHAR
STARTCHAR perthousand
ENCODING 8240
SWIDTH 1401 0
DWIDTH 34 0
BBX 32 16 1 0
BITMAP
006DFEA300000005F400000000000000
0BC4127F5000003E6000000000000000
7E100007E10001D90000000000000000
BA000002F4000BC00000000000000000
BA000002F4008E200000000000000000
7E100007E105F4000000000000000000
0BC4127F503E60000000000000000000
006DFEA301D900000000000000000000
000000000BC004BEEC5000006CFEB400
000000009E207E6115DA000AD4126E70
00000006F303F500003F505F200006F2
0000003F6007F000000C90AC000001F6
000001D90007F000000C90AC000001F6
00000BC00003F500003F505F200006F2
00009E1000007E6115DA000AD4126E70
0006F300000004BEEC5000006CFEB400
ENDCHAR
STARTCHAR guilsinglleft
ENCODING 8249
SWIDTH 257 0
DWIDTH 6 0
BBX 5 9 1 4
BITMAP
002B10
01CC00
0AD100
7E3000
F80000
7E3000
0AD100
01CC00
002B10
ENDCHAR
STARTCHAR guilsinglright
ENCODING 8250
SWIDTH 257 0
DWIDTH 6 0
BBX 5 9 1 4
BITMAP
950000
8E3000
0AD100
01CB00
004F40
01CB00
0AD100
8E3000
950000
ENDCHAR
STARTCHAR fraction
ENCODING 8260
SWIDTH 200 0
DWIDTH 5 0
BBX 15 16 -5 0
BITMAP
0000000000005F30
000000000003E600
00000000001D9000
0000000000BC0000
0000000009D10000
000000006F300000
00000003F6000000
0000001D90000000
000000BB00000000
000009D100000000
00006F3000000000
0003F60000000000
001E900000000000
00CB000000000000
09D1000000000000
6F30000000000000
ENDCHAR
STARTCHAR Euro
ENCODING 8364
SWIDTH 833 0
DWIDTH 20 0
BBX 19 16 0 0
BITMAP
000000027BEFEDA50000
0000008EA5201259C600
00000AE4000000001820
00008E20000000000000
0002F700000000000000
0007E100000000000000
2FFFFFFFFFFFFF200000
000E8000000000000000
000E8000000000000000
2FFFFFFFFFFFE1000000
0008E000000000000000
0003F500000000000000
00009E20000000000000
00001CD3000000001820
0000009FA5201259C600
000000027BEFED950000
ENDCHAR
STARTCHAR trademark
ENCODING 8482
SWIDTH 773 0
DWIDTH 19 0
BBX 17 7 0 9
BITMAP
4FFFFF77F200007F30
000E2007DA0001DE30
000E20079C20078D30
000E200785A01D1D30
000E200780C3770D30
000E2007804BD10D30
000E2007800C700D30
ENDCHAR
STARTCHAR partialdiff
ENCODING 8706
SWIDTH 790 0
DWIDTH 19 0
BBX 17 16 1 0
BITMAP
000005ADFFDB610000
000079521126DE4000
00000000000009F400
00000000000000CC00
000000000000006F30
000000000000002F60
00016ADEFDA4000F70
006EB621014AC30F70
07E5000000002B7F50
2F6000000000009F20
7F1000000000009D00
8E000000000002F600
6F20000000001CC000
1DC100000002CD1000
02CD7310149E910000
0005ADFFEB82000000
ENDCHAR
STARTCHAR minus
ENCODING 8722
SWIDTH 634 0
DWIDTH 15 0
BBX 12 1 2 7
BITMAP
FFFFFFFFFFF3
ENDCHAR
STARTCHAR uni2215
ENCODING 8725
SWIDTH 200 0
DWIDTH 5 0
BBX 15 16 -5 0
BITMAP
0000000000005F30
000000000003E600
00000000001D9000
0000000000BC0000
0000000009D10000
000000006F300000
00000003F6000000
0000001D90000000
000000BB00000000
000009D100000000
00006F3000000000
0003F60000000000
001E900000000000
00CB000000000000
09D1000000000000
6F30000000000000
ENDCHAR
STARTCHAR approxequal
ENCODING 8776
SWIDTH 634 0
DWIDTH 15 0
BBX 13 7 1 5
BITMAP
01AED810000150
0B5128D9303B10
24000016CFC300
00000000000000
01AED810000150
0B5128D9303B20
24000016CFC300
ENDCHAR
STARTCHAR notequal
ENCODING 8800
SWIDTH 634 0
DWIDTH 15 0
BBX 12 13 2 1
BITMAP
0000002F4000
0000007E0000
000000CA0000
000001F50000
FFFFFFFFFFF3
00000C900000
00003F300000
00008D000000
FFFFFFFFFFF3
0004F2000000
0009D0000000
000D80000000
003F40000000
ENDCHAR
STARTCHAR lessequal
ENCODING 8804
SWIDTH 634 0
DWIDTH 15 0
BBX 13 13 1 1
BITMAP
00000000003A40
000000005CC500
0000017DB40000
00039EA3000000
04BE9200000000
3FD30000000000
04BE9200000000
00039EA3000000
0000017DB40000
000000005CC500
00000000004A40
00000000000000
0FFFFFFFFFFF30
ENDCHAR
STARTCHAR greaterequal
ENCODING 8805
SWIDTH 634 0
DWIDTH 15 0
BBX 12 13 2 1
BITMAP
C50000000000
3AD710000000
0029E9200000
000028EB4000
00000017ED61
000000001CF6
00000017ED61
000028EB4000
0029E9200000
3AD710000000
C50000000000
000000000000
FFFFFFFFFFF3
ENDCHAR
STARTCHAR fi
ENCODING 64257
SWIDTH 1104 0
DWIDTH 27 0
BBX 22 16 2 0
BITMAP
00027BDEFFFFFFFF3000AC
008FA531000000000000AC
08E40000000000000000AC
1E800000000000000000AC
3F400000000000000000AC
4F300000000000000000AC
4F300000000000000000AC
4FFFFFFFFFFFFFFE0000AC
4F300000000000000000AC
4F300000000000000000AC
4F300000000000000000AC
4F300000000000000000AC
4F300000000000000000AC
4F300000000000000000AC
4F300000000000000000AC
4F300000000000000000AC
ENDCHAR
STARTCHAR fl
ENCODING 64258
SWIDTH 1527 0
DWIDTH 37 0
BBX 35 16 2 0
BITMAP
00027BDEFFFFFFFF3000AC00000000000000
008FA531000000000000AC00000000000000
08E40000000000000000AC00000000000000
1E800000000000000000AC00000000000000
3F400000000000000000AC00000000000000
4F300000000000000000AC00000000000000
4F300000000000000000AC00000000000000
4FFFFFFFFFFFFFFE0000AC00000000000000
4F300000000000000000AC00000000000000
4F300000000000000000AC00000000000000
4F300000000000000000AC00000000000000
4F3000000000000000009C00000000000000
4F3000000000000000008E00000000000000
4F3000000000000000003F50000000000000
4F30000000000000000008F8310000000000
4F300000000000000000004ADEFFFFFFFF70
ENDCHAR
STARTCHAR .notdef
ENCODING -1
SWIDTH 1000 0
DWIDTH 24 0
BBX 1 1 0 0
BITMAP
00
ENDCHAR
ENDFONT
